<svg width="1099" height="951" viewBox="0 0 1099 951" fill="none" xmlns="http://www.w3.org/2000/svg">
<circle cx="549.5" cy="847.412" r="549" stroke="#FFEFDC"/>
<circle cx="549" cy="881.912" r="514.5" stroke="#FFEFDC"/>
<circle cx="548.5" cy="966.412" r="430" stroke="#FFEFDC"/>
<circle cx="548" cy="1055.91" r="340.5" stroke="#FFEFDC"/>
<path d="M250.439 36.5855L258.517 48.1724L272.033 44.0704L263.509 55.3335L271.587 66.9205L258.242 62.2945L249.718 73.5576L249.993 59.4355L236.648 54.8096L250.164 50.7076L250.439 36.5855Z" fill="#FFEFDC"/>
<path d="M250.439 36.5855L258.517 48.1724L272.033 44.0704L263.509 55.3335L271.587 66.9205L258.242 62.2945L249.718 73.5576L249.993 59.4355L236.648 54.8096L250.164 50.7076L250.439 36.5855Z" fill="#FFEFDC"/>
<path d="M250.439 36.5855L258.517 48.1724L272.033 44.0704L263.509 55.3335L271.587 66.9205L258.242 62.2945L249.718 73.5576L249.993 59.4355L236.648 54.8096L250.164 50.7076L250.439 36.5855Z" fill="#FFEFDC"/>
<path d="M260.694 41.2134L260.853 51.9041L271.069 55.0568L260.951 58.5112L261.11 69.2019L254.698 60.6462L244.579 64.1006L250.735 55.3585L244.323 46.8028L254.539 49.9555L260.694 41.2134Z" fill="#FFEFDC"/>
<path d="M260.694 41.2134L260.853 51.9041L271.069 55.0568L260.951 58.5112L261.11 69.2019L254.698 60.6462L244.579 64.1006L250.735 55.3585L244.323 46.8028L254.539 49.9555L260.694 41.2134Z" fill="#FFEFDC"/>
<path d="M260.694 41.2134L260.853 51.9041L271.069 55.0568L260.951 58.5112L261.11 69.2019L254.698 60.6462L244.579 64.1006L250.735 55.3585L244.323 46.8028L254.539 49.9555L260.694 41.2134Z" fill="#FFEFDC"/>
<path d="M341.552 131.698L349.63 143.285L363.146 139.183L354.623 150.446L362.701 162.033L349.355 157.407L340.831 168.67L341.107 154.548L327.761 149.922L341.277 145.82L341.552 131.698Z" fill="#FFEFDC"/>
<path d="M341.552 131.698L349.63 143.285L363.146 139.183L354.623 150.446L362.701 162.033L349.355 157.407L340.831 168.67L341.107 154.548L327.761 149.922L341.277 145.82L341.552 131.698Z" fill="#FFEFDC"/>
<path d="M341.552 131.698L349.63 143.285L363.146 139.183L354.623 150.446L362.701 162.033L349.355 157.407L340.831 168.67L341.107 154.548L327.761 149.922L341.277 145.82L341.552 131.698Z" fill="#FFEFDC"/>
<path d="M351.808 136.325L351.966 147.015L362.183 150.168L352.064 153.623L352.223 164.313L345.811 155.757L335.692 159.212L341.848 150.47L335.436 141.914L345.652 145.067L351.808 136.325Z" fill="#FFEFDC"/>
<path d="M351.808 136.325L351.966 147.015L362.183 150.168L352.064 153.623L352.223 164.313L345.811 155.757L335.692 159.212L341.848 150.47L335.436 141.914L345.652 145.067L351.808 136.325Z" fill="#FFEFDC"/>
<path d="M351.808 136.325L351.966 147.015L362.183 150.168L352.064 153.623L352.223 164.313L345.811 155.757L335.692 159.212L341.848 150.47L335.436 141.914L345.652 145.067L351.808 136.325Z" fill="#FFEFDC"/>
<path d="M561.459 138.444L569.537 150.031L583.053 145.929L574.529 157.192L582.607 168.779L569.261 164.153L560.738 175.416L561.013 161.294L547.667 156.668L561.183 152.566L561.459 138.444Z" fill="#FFEFDC"/>
<path d="M561.459 138.444L569.537 150.031L583.053 145.929L574.529 157.192L582.607 168.779L569.261 164.153L560.738 175.416L561.013 161.294L547.667 156.668L561.183 152.566L561.459 138.444Z" fill="#FFEFDC"/>
<path d="M561.459 138.444L569.537 150.031L583.053 145.929L574.529 157.192L582.607 168.779L569.261 164.153L560.738 175.416L561.013 161.294L547.667 156.668L561.183 152.566L561.459 138.444Z" fill="#FFEFDC"/>
<path d="M571.714 143.073L571.873 153.763L582.089 156.916L571.971 160.371L572.129 171.061L565.717 162.506L555.599 165.96L561.754 157.218L555.342 148.662L565.559 151.815L571.714 143.073Z" fill="#FFEFDC"/>
<path d="M571.714 143.073L571.873 153.763L582.089 156.916L571.971 160.371L572.129 171.061L565.717 162.506L555.599 165.96L561.754 157.218L555.342 148.662L565.559 151.815L571.714 143.073Z" fill="#FFEFDC"/>
<path d="M571.714 143.073L571.873 153.763L582.089 156.916L571.971 160.371L572.129 171.061L565.717 162.506L555.599 165.96L561.754 157.218L555.342 148.662L565.559 151.815L571.714 143.073Z" fill="#FFEFDC"/>
<path d="M1018.22 19.7086L1026.29 31.2955L1039.81 27.1935L1031.29 38.4566L1039.36 50.0435L1026.02 45.4176L1017.5 56.6807L1017.77 42.5586L1004.43 37.9327L1017.94 33.8307L1018.22 19.7086Z" fill="#FFEFDC"/>
<path d="M1018.22 19.7086L1026.29 31.2955L1039.81 27.1935L1031.29 38.4566L1039.36 50.0435L1026.02 45.4176L1017.5 56.6807L1017.77 42.5586L1004.43 37.9327L1017.94 33.8307L1018.22 19.7086Z" fill="#FFEFDC"/>
<path d="M1018.22 19.7086L1026.29 31.2955L1039.81 27.1935L1031.29 38.4566L1039.36 50.0435L1026.02 45.4176L1017.5 56.6807L1017.77 42.5586L1004.43 37.9327L1017.94 33.8307L1018.22 19.7086Z" fill="#FFEFDC"/>
<path d="M1028.47 24.3355L1028.63 35.0261L1038.85 38.1789L1028.73 41.6333L1028.89 52.3239L1022.47 43.7682L1012.36 47.2227L1018.51 38.4805L1012.1 29.9249L1022.32 33.0776L1028.47 24.3355Z" fill="#FFEFDC"/>
<path d="M1028.47 24.3355L1028.63 35.0261L1038.85 38.1789L1028.73 41.6333L1028.89 52.3239L1022.47 43.7682L1012.36 47.2227L1018.51 38.4805L1012.1 29.9249L1022.32 33.0776L1028.47 24.3355Z" fill="#FFEFDC"/>
<path d="M1028.47 24.3355L1028.63 35.0261L1038.85 38.1789L1028.73 41.6333L1028.89 52.3239L1022.47 43.7682L1012.36 47.2227L1018.51 38.4805L1012.1 29.9249L1022.32 33.0776L1028.47 24.3355Z" fill="#FFEFDC"/>
<line x1="275.893" y1="74.4654" x2="328.94" y2="135.31" stroke="#FFEFDC"/>
<line x1="370.315" y1="158.777" x2="540.44" y2="158.154" stroke="#FFEFDC"/>
<line x1="588.008" y1="155.801" x2="1005.56" y2="44.6389" stroke="#FFEFDC"/>
</svg>
