<svg width="25" height="25" viewBox="0 0 25 25" fill="none" xmlns="http://www.w3.org/2000/svg">
<rect x="0.5" y="0.5" width="24" height="24" stroke="white"/>
<g clip-path="url(#clip0_207_1181)">
<path d="M15.3692 19H9.63076C7.62967 19 6 17.3721 6 15.3692V9.63076C6 7.62789 7.62789 6 9.63076 6H15.371C17.3721 6 19.0018 7.62789 19.0018 9.63076V15.371C19.0018 17.3721 17.3739 19.0018 15.371 19.0018L15.3692 19ZM9.63076 7.05208C8.20902 7.05208 7.05386 8.20902 7.05386 9.62898V15.3692C7.05386 16.791 8.2108 17.9461 9.63076 17.9461H15.371C16.7928 17.9461 17.9479 16.7892 17.9479 15.3692V9.63076C17.9479 8.20902 16.791 7.05386 15.371 7.05386H9.63076V7.05208Z" fill="white"/>
<path d="M12.4992 15.9202C10.6136 15.9202 9.07812 14.3865 9.07812 12.4992C9.07812 10.6118 10.6118 9.07812 12.4992 9.07812C14.3865 9.07812 15.9202 10.6118 15.9202 12.4992C15.9202 14.3865 14.3865 15.9202 12.4992 15.9202ZM12.4992 10.132C11.193 10.132 10.132 11.1947 10.132 12.4992C10.132 13.8036 11.1947 14.8664 12.4992 14.8664C13.8054 14.8664 14.8664 13.8036 14.8664 12.4992C14.8664 11.1947 13.8036 10.132 12.4992 10.132Z" fill="white"/>
<path d="M16.0644 9.46865C15.7712 9.46865 15.5312 9.23051 15.5312 8.93549C15.5312 8.64048 15.7694 8.40234 16.0644 8.40234C16.3594 8.40234 16.5976 8.64048 16.5976 8.93549C16.5976 9.23051 16.3594 9.46865 16.0644 9.46865Z" fill="white"/>
</g>
<defs>
<clipPath id="clip0_207_1181">
<rect width="13" height="13" fill="white" transform="translate(6 6)"/>
</clipPath>
</defs>
</svg>
