<svg width="909" height="1037" viewBox="0 0 909 1037" fill="none" xmlns="http://www.w3.org/2000/svg">
<path d="M794.815 518.047L739.262 517.709" stroke="white" stroke-opacity="0.24" stroke-width="1.9" stroke-linecap="round" stroke-linejoin="round"/>
<path d="M853.625 559.214L736.895 546.686" stroke="white" stroke-opacity="0.24" stroke-width="1.9" stroke-linecap="round" stroke-linejoin="round"/>
<path d="M886.545 608.255L730.645 575.021" stroke="white" stroke-opacity="0.24" stroke-width="1.9" stroke-linecap="round" stroke-linejoin="round"/>
<path d="M905.318 662.741L720.246 602.415" stroke="white" stroke-opacity="0.24" stroke-width="1.9" stroke-linecap="round" stroke-linejoin="round"/>
<path d="M906.879 718.884L706.094 628.621" stroke="white" stroke-opacity="0.24" stroke-width="1.9" stroke-linecap="round" stroke-linejoin="round"/>
<path d="M894.828 775.046L688.195 653.244" stroke="white" stroke-opacity="0.24" stroke-width="1.9" stroke-linecap="round" stroke-linejoin="round"/>
<path d="M869.675 828.949L666.926 675.967" stroke="white" stroke-opacity="0.24" stroke-width="1.9" stroke-linecap="round" stroke-linejoin="round"/>
<path d="M832.871 878.875L642.531 696.37" stroke="white" stroke-opacity="0.24" stroke-width="1.9" stroke-linecap="round" stroke-linejoin="round"/>
<path d="M786.376 924.09L615.477 714.211" stroke="white" stroke-opacity="0.24" stroke-width="1.9" stroke-linecap="round" stroke-linejoin="round"/>
<path d="M730.871 962.694L586.152 729.076" stroke="white" stroke-opacity="0.24" stroke-width="1.9" stroke-linecap="round" stroke-linejoin="round"/>
<path d="M668.154 993.875L555.039 740.87" stroke="white" stroke-opacity="0.24" stroke-width="1.9" stroke-linecap="round" stroke-linejoin="round"/>
<path d="M599.832 1016.56L522.473 749.367" stroke="white" stroke-opacity="0.24" stroke-width="1.9" stroke-linecap="round" stroke-linejoin="round"/>
<path d="M527.941 1030.31L488.859 754.492" stroke="white" stroke-opacity="0.24" stroke-width="1.9" stroke-linecap="round" stroke-linejoin="round"/>
<path d="M454.512 1035.21V756.319" stroke="white" stroke-opacity="0.24" stroke-width="1.9" stroke-linecap="round" stroke-linejoin="round"/>
<path d="M116.195 518.047L169.739 517.709" stroke="white" stroke-opacity="0.24" stroke-width="1.9" stroke-linecap="round" stroke-linejoin="round"/>
<path d="M55.3516 559.233L172.104 546.686" stroke="white" stroke-opacity="0.24" stroke-width="1.9" stroke-linecap="round" stroke-linejoin="round"/>
<path d="M20.0195 608.763L178.353 575.021" stroke="white" stroke-opacity="0.24" stroke-width="1.9" stroke-linecap="round" stroke-linejoin="round"/>
<path d="M3.68359 662.741L188.756 602.415" stroke="white" stroke-opacity="0.24" stroke-width="1.9" stroke-linecap="round" stroke-linejoin="round"/>
<path d="M2.12109 718.884L202.906 628.621" stroke="white" stroke-opacity="0.24" stroke-width="1.9" stroke-linecap="round" stroke-linejoin="round"/>
<path d="M14.1719 775.046L220.804 653.244" stroke="white" stroke-opacity="0.24" stroke-width="1.9" stroke-linecap="round" stroke-linejoin="round"/>
<path d="M39.75 828.629L242.075 675.967" stroke="white" stroke-opacity="0.24" stroke-width="1.9" stroke-linecap="round" stroke-linejoin="round"/>
<path d="M76.1328 878.875L266.472 696.37" stroke="white" stroke-opacity="0.24" stroke-width="1.9" stroke-linecap="round" stroke-linejoin="round"/>
<path d="M122.621 924.09L293.52 714.211" stroke="white" stroke-opacity="0.24" stroke-width="1.9" stroke-linecap="round" stroke-linejoin="round"/>
<path d="M177.973 962.92L322.848 729.076" stroke="white" stroke-opacity="0.24" stroke-width="1.9" stroke-linecap="round" stroke-linejoin="round"/>
<path d="M240.848 993.875L353.962 740.87" stroke="white" stroke-opacity="0.24" stroke-width="1.9" stroke-linecap="round" stroke-linejoin="round"/>
<path d="M309.168 1016.56L386.527 749.367" stroke="white" stroke-opacity="0.24" stroke-width="1.9" stroke-linecap="round" stroke-linejoin="round"/>
<path d="M381.035 1030.43L420.139 754.492" stroke="white" stroke-opacity="0.24" stroke-width="1.9" stroke-linecap="round" stroke-linejoin="round"/>
<path d="M55.375 477.786L172.105 490.315" stroke="white" stroke-opacity="0.24" stroke-width="1.9" stroke-linecap="round" stroke-linejoin="round"/>
<path d="M22.4531 428.764L178.354 461.979" stroke="white" stroke-opacity="0.24" stroke-width="1.9" stroke-linecap="round" stroke-linejoin="round"/>
<path d="M3.68359 374.278L188.756 434.586" stroke="white" stroke-opacity="0.24" stroke-width="1.9" stroke-linecap="round" stroke-linejoin="round"/>
<path d="M2.12109 318.116L202.906 408.379" stroke="white" stroke-opacity="0.24" stroke-width="1.9" stroke-linecap="round" stroke-linejoin="round"/>
<path d="M14.1719 261.953L220.804 383.755" stroke="white" stroke-opacity="0.24" stroke-width="1.9" stroke-linecap="round" stroke-linejoin="round"/>
<path d="M39.3281 208.07L242.077 361.034" stroke="white" stroke-opacity="0.24" stroke-width="1.9" stroke-linecap="round" stroke-linejoin="round"/>
<path d="M76.1328 158.126L266.472 340.631" stroke="white" stroke-opacity="0.24" stroke-width="1.9" stroke-linecap="round" stroke-linejoin="round"/>
<path d="M122.621 112.909L293.52 322.807" stroke="white" stroke-opacity="0.24" stroke-width="1.9" stroke-linecap="round" stroke-linejoin="round"/>
<path d="M178.129 74.3252L322.848 307.924" stroke="white" stroke-opacity="0.24" stroke-width="1.9" stroke-linecap="round" stroke-linejoin="round"/>
<path d="M240.848 43.1436L353.962 296.129" stroke="white" stroke-opacity="0.24" stroke-width="1.9" stroke-linecap="round" stroke-linejoin="round"/>
<path d="M309.168 20.4609L386.527 287.633" stroke="white" stroke-opacity="0.24" stroke-width="1.9" stroke-linecap="round" stroke-linejoin="round"/>
<path d="M381.059 6.68848L420.14 282.508" stroke="white" stroke-opacity="0.24" stroke-width="1.9" stroke-linecap="round" stroke-linejoin="round"/>
<path d="M454.512 1.79004V280.681" stroke="white" stroke-opacity="0.24" stroke-width="1.9" stroke-linecap="round" stroke-linejoin="round"/>
<path d="M853.647 477.786L736.895 490.315" stroke="white" stroke-opacity="0.24" stroke-width="1.9" stroke-linecap="round" stroke-linejoin="round"/>
<path d="M888.978 428.236L730.645 461.979" stroke="white" stroke-opacity="0.24" stroke-width="1.9" stroke-linecap="round" stroke-linejoin="round"/>
<path d="M905.318 374.278L720.246 434.586" stroke="white" stroke-opacity="0.24" stroke-width="1.9" stroke-linecap="round" stroke-linejoin="round"/>
<path d="M906.879 318.116L706.094 408.379" stroke="white" stroke-opacity="0.24" stroke-width="1.9" stroke-linecap="round" stroke-linejoin="round"/>
<path d="M894.828 261.953L688.195 383.755" stroke="white" stroke-opacity="0.24" stroke-width="1.9" stroke-linecap="round" stroke-linejoin="round"/>
<path d="M869.251 208.372L666.926 361.034" stroke="white" stroke-opacity="0.24" stroke-width="1.9" stroke-linecap="round" stroke-linejoin="round"/>
<path d="M832.871 158.126L642.531 340.631" stroke="white" stroke-opacity="0.24" stroke-width="1.9" stroke-linecap="round" stroke-linejoin="round"/>
<path d="M786.376 112.909L615.477 322.807" stroke="white" stroke-opacity="0.24" stroke-width="1.9" stroke-linecap="round" stroke-linejoin="round"/>
<path d="M731.027 74.0791L586.152 307.923" stroke="white" stroke-opacity="0.24" stroke-width="1.9" stroke-linecap="round" stroke-linejoin="round"/>
<path d="M668.154 43.1436L555.039 296.129" stroke="white" stroke-opacity="0.24" stroke-width="1.9" stroke-linecap="round" stroke-linejoin="round"/>
<path d="M599.832 20.4609L522.473 287.633" stroke="white" stroke-opacity="0.24" stroke-width="1.9" stroke-linecap="round" stroke-linejoin="round"/>
<path d="M527.963 6.5752L488.859 282.508" stroke="white" stroke-opacity="0.24" stroke-width="1.9" stroke-linecap="round" stroke-linejoin="round"/>
<path d="M856.44 519.329C837.29 520.987 835.594 522.419 833.63 538.584C833.63 538.602 833.585 538.602 833.585 538.584C831.621 522.419 829.925 520.987 810.775 519.329C810.752 519.329 810.752 519.291 810.775 519.291C829.925 517.633 831.621 516.201 833.585 500.037C833.585 500.018 833.63 500.018 833.63 500.037C835.594 516.201 837.29 517.633 856.44 519.291C856.462 519.291 856.462 519.329 856.44 519.329Z" fill="white" fill-opacity="0.24"/>
<path d="M98.9634 519.329C79.8134 520.987 78.1171 522.419 76.153 538.584C76.153 538.602 76.1084 538.602 76.1084 538.584C74.1443 522.419 72.448 520.987 53.298 519.329C53.2757 519.329 53.2757 519.291 53.298 519.291C72.448 517.633 74.1443 516.201 76.1084 500.037C76.1084 500.018 76.153 500.018 76.153 500.037C78.1171 516.201 79.8134 517.633 98.9634 519.291C98.9857 519.291 98.9857 519.329 98.9634 519.329Z" fill="white" fill-opacity="0.24"/>
</svg>
