<svg width="117" height="118" viewBox="0 0 117 118" fill="none" xmlns="http://www.w3.org/2000/svg">
<mask id="mask0_207_855" style="mask-type:luminance" maskUnits="userSpaceOnUse" x="0" y="1" width="117" height="117">
<path d="M0.460938 59.7279C0.460938 91.8667 26.5156 117.92 58.6558 117.92C90.7954 117.92 116.85 91.8667 116.85 59.7279C116.85 27.5892 90.7954 1.53596 58.6558 1.53596C26.5156 1.53596 0.460938 27.5892 0.460938 59.7279Z" fill="white"/>
</mask>
<g mask="url(#mask0_207_855)">
<path d="M117.241 59.8568C117.241 91.9956 91.186 118.049 59.0459 118.049C26.9062 118.049 0.851562 91.9956 0.851562 59.8568C0.851562 27.7181 26.9062 1.66486 59.0459 1.66486C91.186 1.66486 117.241 27.7181 117.241 59.8568Z" fill="#B09B86"/>
<path d="M84.4985 61.5343C84.1083 61.0504 97.7597 19.1702 97.3548 18.7653C96.9665 18.3769 82.341 56.427 81.5643 58.3688C81.228 59.2098 80.7961 58.75 80.5289 58.6275C80.4678 58.5992 80.4026 58.5556 80.3345 58.4984C79.1628 57.5131 75.3516 58.4979 76.9698 51.4447C77.4779 49.2299 77.099 46.8497 74.4458 44.1965C82.6646 40.8962 86.2548 29.3019 83.894 18.8944C83.1707 15.7053 80.8401 10.2645 78.5876 7.89374C75.8081 4.96808 69.4563 1.78131 69.1394 1.68103C64.2209 0.12809 60.4674 -0.260269 57.1023 0.257698C48.3424 1.60535 43.0379 6.61799 41.9594 7.63451C40.3284 9.17184 37.5352 11.9967 35.7467 16.0473C34.5513 18.7544 33.8035 21.9899 34.4525 25.7537C35.0996 29.5072 36.4586 30.413 36.3938 30.8014C35.9449 33.4943 36.5745 33.5274 35.0348 36.8197C34.2145 38.5736 30.6792 39.3087 29.4044 40.7671C28.2521 42.0859 28.8065 43.1118 28.9219 44.8597C29.0368 46.6075 29.1688 47.7461 27.4631 48.1444C26.3841 48.396 25.4636 48.5289 24.4863 49.0502C22.545 50.0857 23.4249 51.6353 21.7035 53.5799C20.7873 54.6149 18.8677 55.5846 17.8853 56.5566C14.7789 59.6303 18.8521 63.2376 17.109 66.0044C16.2912 67.3023 14.4837 68.2356 13.6143 69.4991C12.0212 71.8136 12.3036 73.8509 13.3717 76.3745C13.6238 76.9705 10.8963 82.2471 9.92567 83.0238C8.32637 84.3028 8.68492 86.5473 8.56667 88.7507C8.26961 94.2718 7.24977 99.3569 6.95318 104.878C6.93048 105.302 6.90966 105.741 7.06481 106.136C7.26017 106.634 7.70245 106.986 8.12817 107.311C11.8447 110.148 15.7354 112.804 19.994 114.734C26.8122 117.826 34.3423 118.961 41.7919 119.697C52.6573 120.771 63.6726 121.062 74.4529 119.333C78.1283 118.743 81.8358 117.893 85.0406 116C88.2453 114.106 90.9151 111.02 91.5343 107.35C92.0281 104.423 90.9118 102.149 90.5598 99.2017C89.89 93.593 88.7491 89.236 87.3239 84.2532C86.9483 82.9386 85.49 81.2216 85.9005 79.9174C86.2231 78.891 86.6077 77.6483 87.1947 76.7467C87.9454 75.5926 88.0301 73.4578 88.1654 72.0875C88.5774 67.9135 87.2723 65.3161 84.8003 61.9278C84.701 61.7916 84.6002 61.6606 84.4985 61.5343Z" fill="#E4C9B6"/>
<path d="M79.7525 74.8054C84.5083 77.9345 85.4993 79.3271 87.389 84.6415C89.4595 90.4659 89.3951 90.8538 87.5182 93.1834C86.8167 94.0542 85.1308 96.2373 85.7065 97.1956C84.5864 96.5135 82.8234 97.0215 81.6654 97.6369C81.1082 97.933 80.4214 98.3682 79.9219 97.9832C79.7331 97.838 78.4105 97.8077 78.3287 97.584C77.5085 95.3319 77.8008 93.611 77.6816 91.3069C77.6012 89.7478 77.0345 88.3302 76.2578 86.3241" fill="#938B89"/>
<path d="M72.3783 80.4998C61.4414 82.7647 53.1578 82.6999 45.2631 79.3353C43.3728 82.3271 44.7451 84.1237 40.1506 89.0417C39.0314 90.2394 37.4969 90.9182 36.0736 91.7597C34.743 92.5459 34.585 96.7426 31.7374 98.1016C32.4701 92.6613 32.1967 90.6349 31.4138 89.0417C30.7445 87.6785 29.727 86.4812 28.3723 85.4179C26.7853 84.1719 25.2096 83.1393 23.1955 83.0234C21.1809 82.908 18.4052 84.179 17.8886 86.1298C14.3939 84.3176 12.4526 84.706 9.15234 84.3824C11.1774 83.4917 15.0197 80.8697 16.4 79.1408C17.9047 77.2573 17.4501 76.2511 18.2122 73.9641C19.118 71.2461 19.8347 69.8189 22.0952 68.9812C25.3421 67.7778 26.3421 71.9239 32.6437 66.6516C34.3258 65.2438 33.5495 61.6687 36.2027 60.892C37.5561 60.4961 39.3876 61.4701 40.7977 61.4748C42.2073 61.479 43.9088 59.6423 43.7744 58.2388C48.3694 63.2865 56.2642 64.1923 64.1594 59.7922C65.3245 61.7335 67.0719 63.5452 68.3661 65.2278C70.111 67.4964 71.4724 69.046 73.2817 70.5966C74.0513 71.256 75.0173 71.6566 75.8715 72.2186" fill="#938B89"/>
<path d="M47.8782 14.2029C47.5631 14.4144 43.8012 16.5326 41.051 21.8711C39.3774 25.1189 39.1092 26.2717 37.6211 29.8955C40.8646 29.1576 42.6758 27.6094 44.5779 25.9481C47.2211 23.6393 47.5868 23.9099 49.056 21.6332C49.2107 21.3934 49.3852 21.0419 49.5285 21.2888C50.2404 22.5182 51.8232 23.1984 52.2465 23.6833C53.5336 25.1587 54.3245 25.0872 56.0322 26.0451C58.4418 27.397 61.6347 28.0479 63.8948 29.6368C66.3753 31.3799 67.179 32.6372 68.8455 35.1693C70.1572 37.1617 70.8842 40.8967 73.159 42.5977C73.1665 41.3195 74.1679 40.3976 74.9058 39.3541C75.7379 38.1787 76.6844 37.5363 76.4498 36.9493C76.2554 36.4639 76.3476 33.9862 76.3202 33.7133C75.9318 29.8307 75.806 29.0209 75.1551 25.0745C74.4645 20.8868 72.6637 15.8855 70.7546 14.4943C69.7201 13.7403 66.9898 11.1666 65.8365 10.6112C63.8603 9.66 62.9241 8.2816 60.9682 7.07775C60.5571 6.82469 60.0004 5.95007 59.5269 5.85499C59.0415 5.75801 58.8003 6.5948 57.4881 7.69931C55.9059 9.03182 50.2078 12.9409 47.7164 14.2351" fill="#938B89"/>
<path d="M8.92158 84.344C7.98783 94.0604 7.43959 103.813 7.27734 113.571" stroke="#231F20" stroke-width="0.75" stroke-miterlimit="10" stroke-linecap="round" stroke-linejoin="round"/>
<path d="M62.2617 107.806C64.5209 101.476 66.0762 98.5784 67.4016 94.4276C68.5799 90.738 69.99 87.3246 71.1683 83.635C72.3627 79.8948 73.6129 77.4398 75.0258 73.7763C77.1611 68.24 79.8795 61.9648 82.0256 56.4328C87.2767 42.9 90.4034 31.8516 97.0007 19.4442" stroke="#231F20" stroke-width="0.75" stroke-miterlimit="10" stroke-linecap="round" stroke-linejoin="round"/>
<path d="M49.207 21.4824C49.7179 19.6215 50.541 18.4129 51.0518 16.5516C51.2704 15.7545 51.618 14.1741 52.3668 13.8019C52.6426 13.6647 52.5901 13.6533 52.8474 13.4859C53.118 13.3099 53.293 13.0266 53.4628 12.7546C55.003 10.2873 57.1732 7.90325 59.1897 5.79404C61.9106 7.82473 64.4162 9.57019 67.137 11.6009C68.9166 12.9287 70.7216 14.2815 72.0532 16.0464C73.2528 17.6362 73.6742 19.7771 74.2736 21.6678C75.8005 26.4846 76.1231 31.3133 76.0781 36.3529C76.52 36.8902 76.1009 37.832 75.6061 38.3225C74.3421 39.5751 73.4548 41.191 73.082 42.918C71.9179 41.6077 70.9572 40.1229 70.2443 38.5297C69.5462 36.9692 68.8896 35.8075 68.1498 34.2654C66.752 31.3535 64.5993 30.012 62.2507 28.8152C59.9021 27.6185 57.3927 26.7505 55.0371 25.5674C54.2003 25.1474 53.4018 24.7647 52.6956 24.155C51.4823 23.1067 50.8872 23.1034 49.4076 21.4048" stroke="#231F20" stroke-width="0.75" stroke-miterlimit="10" stroke-linecap="round" stroke-linejoin="round"/>
<path d="M56.5187 8.26125C54.9922 9.13398 52.8664 11.0284 51.34 11.9012C49.9285 12.7082 47.3458 14.1925 46.1613 15.298C45.2507 16.1485 44.5511 16.5747 43.809 17.5709C40.9514 21.4057 37.1601 29.554 38.0234 29.9177C38.8867 30.282 41.994 27.8274 44.3118 26.2173C46.4078 24.7613 48.447 23.3347 49.244 21.2429" stroke="#231F20" stroke-width="0.75" stroke-miterlimit="10" stroke-linecap="round" stroke-linejoin="round"/>
<path d="M51.1539 14.3284C51.4003 14.4093 49.6899 15.8047 48.8583 16.4438C48.2727 16.8941 47.4345 17.5232 46.4478 18.0895C44.8508 19.0062 44.5571 18.9996 42.7695 19.7275" stroke="#231F20" stroke-width="0.75" stroke-miterlimit="10" stroke-linecap="round" stroke-linejoin="round"/>
<path d="M52.5664 13.6201C53.6865 15.7439 57.9745 19.1194 61.6324 20.636C71.2897 24.6401 74.0129 32.008 73.9481 31.866C74.7229 33.1328 76.3605 36.3366 76.3439 37.417" stroke="#231F20" stroke-width="0.75" stroke-miterlimit="10" stroke-linecap="round" stroke-linejoin="round"/>
<path d="M42.1515 24.2794C41.7456 24.234 41.3085 24.2875 40.9821 24.5296C40.6562 24.7718 40.4817 25.2359 40.6629 25.5963C40.8937 26.0552 41.6245 26.11 41.9892 25.7453C42.3539 25.3801 42.3411 24.7491 42.0389 24.3329" stroke="#231F20" stroke-width="0.75" stroke-miterlimit="10" stroke-linecap="round" stroke-linejoin="round"/>
<path d="M55.5708 21.332C54.9672 21.0184 54.1697 21.1144 53.6607 21.5619C53.5069 21.6977 53.3745 21.8694 53.3381 22.07C53.2837 22.3661 53.4582 22.674 53.7165 22.8363C53.9743 22.999 54.2983 23.033 54.602 22.9919C55.2146 22.9096 55.8238 22.437 55.8215 21.8287C55.8205 21.5714 55.707 21.3164 55.5159 21.1409" stroke="#231F20" stroke-width="0.75" stroke-miterlimit="10" stroke-linecap="round" stroke-linejoin="round"/>
<path d="M71.5415 33.5191C71.0136 33.241 70.2605 33.5811 70.1304 34.1563C70.0543 34.4917 70.1654 34.8389 70.288 35.1605C70.3613 35.3535 70.4455 35.5531 70.6063 35.6842C70.7364 35.7906 70.9029 35.8407 71.0647 35.8885C71.312 35.9618 71.5944 36.0309 71.8158 35.8999C71.944 35.8232 72.0273 35.6908 72.0859 35.555C72.4133 34.7987 72.0183 33.8186 71.2534 33.4884" stroke="#231F20" stroke-width="0.75" stroke-miterlimit="10" stroke-linecap="round" stroke-linejoin="round"/>
<path d="M74.2941 44.0996C76.3636 44.0925 81.5777 39.6782 83.2451 33.6174C84.291 29.8157 84.4759 24.55 84.1098 20.621C83.9017 18.3917 82.5616 15.3993 81.7631 13.3109C80.2622 9.38621 77.3394 6.22593 73.7354 4.1257C70.1319 2.02594 67 0.721345 62.8672 0.252104C59.2561 -0.158008 55.3736 0.492402 51.9375 1.68915C47.974 3.06944 43.9401 5.65689 41.0078 8.68708C37.9085 11.8895 35.6948 15.22 34.5855 19.5591C33.4763 23.8981 34.5836 28.3432 36.5249 30.9315" stroke="#231F20" stroke-width="0.75" stroke-miterlimit="10" stroke-linecap="round" stroke-linejoin="round"/>
<path d="M52.1797 32.8469C55.4166 31.4714 59.4581 32.1837 62.0082 34.5801" stroke="#231F20" stroke-width="0.75" stroke-miterlimit="10" stroke-linecap="round" stroke-linejoin="round"/>
<path d="M59.3849 36.1312C58.9601 36.4808 58.3835 36.5811 57.8334 36.6407C56.0955 36.8285 54.2407 36.7116 52.7578 35.7997" stroke="#231F20" stroke-width="0.75" stroke-miterlimit="10" stroke-linecap="round" stroke-linejoin="round"/>
<path d="M45.9163 36.2409C44.8298 36.6056 43.6605 36.7295 42.5195 36.6013" stroke="#231F20" stroke-width="0.75" stroke-miterlimit="10" stroke-linecap="round" stroke-linejoin="round"/>
<path d="M43.0234 31.7264C43.8654 31.6148 44.7358 31.6138 45.5489 31.8556C46.362 32.0973 47.116 32.6015 47.5351 33.3286C48.0952 34.3006 47.3966 37.7731 47.0844 38.5318C46.8635 39.0701 46.1747 41.5474 45.9131 42.4144C45.785 42.8387 45.2183 43.9418 45.3942 44.3496C45.6492 44.9385 46.2674 44.9915 46.8994 45.1442C47.2863 45.2379 48.3511 45.0151 48.4774 44.9304C48.8345 44.6925 49.3033 44.9361 49.6912 45.1215C50.0795 45.3065 50.6737 45.3566 50.8227 44.9583" stroke="#231F20" stroke-width="0.75" stroke-miterlimit="10" stroke-linecap="round" stroke-linejoin="round"/>
<path d="M53.5105 48.9295C53.0398 48.789 52.5966 48.5591 52.213 48.2555C51.695 47.8458 51.1151 47.2612 50.4874 47.4769C50.2097 47.5724 50.0039 47.8141 49.7258 47.9083C49.415 48.0133 49.0759 47.9177 48.7599 47.8293C48.1147 47.649 47.4184 47.5029 46.7831 47.7143C46.3115 47.8714 45.926 48.21 45.478 48.4239C45.0301 48.6377 44.4284 48.6949 44.0859 48.3392C44.7217 49.0057 45.3721 49.7143 46.1285 50.245C46.8848 50.7753 47.7741 51.1622 48.7027 51.1854C49.714 51.2109 50.6846 50.8088 51.5772 50.341C52.4561 49.8803 53.0762 49.5028 53.8667 48.9059" stroke="#231F20" stroke-width="0.75" stroke-miterlimit="10" stroke-linecap="round" stroke-linejoin="round"/>
<path d="M44.5547 48.8451C45.5698 49.1705 46.2618 49.2973 47.329 49.3304C49.2159 49.3886 51.4386 48.4364 53.2238 49.0409" stroke="#231F20" stroke-width="0.75" stroke-miterlimit="10" stroke-linecap="round" stroke-linejoin="round"/>
<path d="M42.6663 27.422C42.584 29.9342 40.6446 32.2832 41.1905 34.7382C41.3414 35.417 41.6777 36.0457 41.8248 36.7249C42.1819 38.3786 41.0221 39.9368 41.1044 41.6255C41.1555 42.6685 41.2789 44.3298 41.5977 45.326C42.3295 47.6116 44.2419 52.6786 44.4591 53.2444C46.0981 57.5191 47.9992 57.8176 48.4963 57.9813C49.6533 58.3635 50.8629 58.2362 52.0785 58.1255C56.0855 57.7618 56.9464 57.4486 58.9128 55.8484" stroke="#231F20" stroke-width="0.75" stroke-miterlimit="10" stroke-linecap="round" stroke-linejoin="round"/>
<path d="M58.3594 27.187C58.6072 29.3723 62.7155 31.7341 63.7859 34.9531C64.1274 35.9814 64.2386 38.9293 64.4638 39.9884C64.9609 42.3261 66.2253 42.7802 68.1013 44.2953C68.6562 44.7433 69.7782 45.3587 70.1926 45.9353C70.5298 46.4045 70.7342 46.9532 70.9092 47.502C71.6835 49.9234 71.9726 52.4943 71.7554 55.0235C71.5662 57.2273 70.5568 59.9269 70.7522 62.1303C70.9617 64.4902 70.4565 66.0157 71.1221 68.5" stroke="#231F20" stroke-width="0.75" stroke-miterlimit="10" stroke-linecap="round" stroke-linejoin="round"/>
<path d="M73.0352 42.8998C74.4533 44.1737 76.9906 46.9919 77.1041 49.148C77.2001 50.9762 76.3047 53.2056 76.4258 55.0324C76.6108 57.8228 79.8283 58.1761 80.4948 58.6113" stroke="#231F20" stroke-width="0.75" stroke-miterlimit="10" stroke-linecap="round" stroke-linejoin="round"/>
<path d="M37.7595 29.7802C36.7836 30.7291 36.1285 31.9921 35.9209 33.326C35.8135 34.0157 35.8215 34.7219 35.6739 35.4045C35.4478 36.4494 34.8457 37.4125 33.9999 38.0828C33.1267 38.7743 32.0406 39.1395 31.0459 39.648C30.0511 40.1565 29.0776 40.8963 28.7697 41.9568C28.5095 42.8546 28.773 43.8068 28.86 44.7368C28.9466 45.6668 29.4551 47.7528 26.9887 48.2987C25.6117 48.6038 24.0588 48.8857 23.4538 50.1402C22.9841 51.1137 22.8559 52.2508 22.2041 53.1164C21.2788 54.3449 20.0338 55.026 18.7893 55.9423C17.2089 57.1059 16.4999 59.1768 17.0632 61.0382C17.3083 61.8485 17.6966 63.2264 17.7411 64.0712C17.8049 65.2746 16.6948 66.5537 15.8301 67.4075C14.9659 68.2613 13.7459 69.0394 13.2407 70.1373C12.6892 71.3369 12.4952 72.5885 12.6244 73.8983C12.7493 75.167 13.3188 75.5175 13.4432 76.7861" stroke="#231F20" stroke-width="0.75" stroke-miterlimit="10" stroke-linecap="round" stroke-linejoin="round"/>
<path d="M20.5935 74.361C21.3243 74.072 22.2604 74.528 22.47 75.2749C22.5272 75.4783 22.5362 75.6917 22.5353 75.9022C22.5339 76.2711 22.4918 76.6675 22.2481 76.948C21.9014 77.3468 21.216 77.3496 20.8068 77.0128C20.3981 76.6756 20.2638 76.0838 20.3977 75.5758C20.4894 75.2267 20.7714 74.8677 21.1361 74.8989" stroke="#231F20" stroke-width="0.75" stroke-miterlimit="10" stroke-linecap="round" stroke-linejoin="round"/>
<path d="M35.6788 76.8042C35.07 76.8694 34.6528 77.5913 34.8713 78.1542C35.0903 78.7171 35.8429 78.99 36.3992 78.7374C36.9555 78.4853 37.2379 77.7876 37.052 77.2133C36.9943 77.0355 36.8973 76.8685 36.7611 76.7389C36.5884 76.5743 36.3476 76.474 36.1083 76.4929" stroke="#231F20" stroke-width="0.75" stroke-miterlimit="10" stroke-linecap="round" stroke-linejoin="round"/>
<path d="M32.04 80.5463C32.5698 80.6636 33.1488 80.8121 33.4615 81.2492C33.6511 81.5146 33.7103 81.8462 33.7604 82.1669C33.7859 82.3291 33.8096 82.4994 33.7524 82.6536C33.6317 82.9786 33.2273 83.085 32.881 83.1451C32.5395 83.2047 32.1701 83.2605 31.8607 83.1068C31.6237 82.9885 31.4624 82.7662 31.3149 82.5491C31.2046 82.3873 31.0949 82.2198 31.0486 82.0302C30.9374 81.5756 31.277 81.0642 31.7444 80.9815" stroke="#231F20" stroke-width="0.75" stroke-miterlimit="10" stroke-linecap="round" stroke-linejoin="round"/>
<path d="M40.8698 33.662C38.0127 36.6104 35.009 39.8515 34.4934 43.8935C34.1916 46.2596 35.1429 48.6659 34.8146 51.0286C34.5402 53.003 33.8638 54.9453 32.9651 56.7309C32.2702 58.1112 30.967 59.4139 29.8247 60.4674C28.179 61.9843 25.4317 61.9441 23.471 63.0397C19.7828 65.1002 17.378 69.8266 15.2096 73.4131C12.9959 77.0748 11.819 81.4205 9.09766 84.041" stroke="#231F20" stroke-width="0.75" stroke-miterlimit="10" stroke-linecap="round" stroke-linejoin="round"/>
<path d="M41.5487 36.3855C41.1248 36.8637 40.7899 37.411 40.4579 37.955C39.9579 38.7729 39.4546 39.5983 39.1315 40.4989C38.518 42.2094 38.5923 44.0731 38.3454 45.8706C38.0989 47.6681 37.3974 49.582 35.7953 50.4798C35.2097 50.8076 34.5479 50.9731 33.9051 51.1723C32.0834 51.7356 31.3025 52.4849 29.5764 54.2441C28.8158 55.0194 28.2543 56.1509 27.6938 57.0766C27.2941 57.7374 26.3088 60.0074 25.7539 61.8271" stroke="#231F20" stroke-width="0.75" stroke-miterlimit="10" stroke-linecap="round" stroke-linejoin="round"/>
<path d="M44.86 54.8069C43.6122 54.6025 42.3407 54.5391 41.0786 54.6186C40.3346 54.6654 39.565 54.7723 38.9415 55.1744C37.706 55.971 37.7888 57.0656 36.8489 58.1866C35.8967 59.3219 33.9492 59.7164 32.7179 60.5522C31.5964 61.3143 30.7691 63.0479 30.2587 64.2915C29.9786 64.9741 29.4933 65.8402 29.3273 66.5582C29.1461 67.3401 28.8916 68.0204 28.7109 68.8027" stroke="#231F20" stroke-width="0.75" stroke-miterlimit="10" stroke-linecap="round" stroke-linejoin="round"/>
<path d="M45.5482 55.7079C44.7417 56.0494 44.089 56.7273 43.7862 57.538C43.4187 58.5219 43.642 59.7854 42.8936 60.5313C41.2896 62.1297 39.932 61.3397 38.5768 61.159C37.2216 60.9783 36.022 60.6884 35.0012 61.5838C34.2855 62.2115 34.2179 63.5502 33.8617 64.4262C32.7321 67.2038 29.8973 69.2293 26.8633 69.4265C25.799 69.4961 23.8591 68.6834 22.7943 68.7421C21.7296 68.8003 20.5673 69.7993 19.8351 70.5618C18.3673 72.0902 17.9402 76.564 16.8758 78.3871C15.2113 81.2385 10.6489 83.5435 8.98438 84.2715" stroke="#231F20" stroke-width="0.75" stroke-miterlimit="10" stroke-linecap="round" stroke-linejoin="round"/>
<path d="M69.4763 45.309C69.1083 46.3402 68.6509 47.3737 67.8671 48.1485C67.0837 48.9229 65.9097 49.3954 64.8407 49.0989C64.2314 52.8372 64.3402 55.9043 63.7305 59.6426" stroke="#231F20" stroke-width="0.75" stroke-miterlimit="10" stroke-linecap="round" stroke-linejoin="round"/>
<path d="M43.9414 58.1874C45.1112 59.7172 46.2209 60.6519 48.0104 61.4026C51.7709 62.9797 56.9723 62.4272 57.6894 62.2517C59.7726 61.7422 61.6969 61.2205 63.7318 59.9452" stroke="#231F20" stroke-width="0.75" stroke-miterlimit="10" stroke-linecap="round" stroke-linejoin="round"/>
<path d="M69.5601 45.5482C69.9437 46.3902 69.5634 47.3769 69.0634 48.1579C68.5634 48.9384 68.2843 49.6967 68.107 50.603C67.8946 51.6871 68.0242 52.7491 68.2711 53.8266C68.5483 55.0371 68.5237 56.2987 68.7829 57.5129C69.0421 58.7276 69.6727 59.9684 70.816 60.4925C71.4536 60.7848 72.1792 60.8217 72.85 61.0308C74.1465 61.4343 75.1616 62.4617 75.8527 63.6145C76.5434 64.7672 76.9568 66.0557 77.426 67.3116C77.453 67.3835 77.4199 66.7577 77.3546 66.7998" stroke="#231F20" stroke-width="0.75" stroke-miterlimit="10" stroke-linecap="round" stroke-linejoin="round"/>
<path d="M81.1758 71.7001C82.1422 72.9149 82.5854 73.9967 83.4955 75.2526C84.7178 76.9403 85.9439 78.8845 85.6298 80.9336C85.6241 80.8333 85.618 80.733 85.6123 80.6332" stroke="#231F20" stroke-width="0.75" stroke-miterlimit="10" stroke-linecap="round" stroke-linejoin="round"/>
<path d="M84.5586 61.5221C87.2823 64.9289 88.5575 69.4221 88.0221 73.7248C87.9369 74.4088 87.8073 75.0909 87.5727 75.7408C87.3324 76.4073 86.9852 77.0307 86.6394 77.6509C86.2374 78.3722 86.1068 79.1764 85.7984 80.9355" stroke="#231F20" stroke-width="0.75" stroke-miterlimit="10" stroke-linecap="round" stroke-linejoin="round"/>
<path d="M63.8047 59.7509C65.3302 61.3223 66.0312 62.5224 67.3685 64.2518C68.2667 65.4135 69.857 67.0667 70.8523 68.1495C72.2212 69.6395 73.8323 70.8907 75.4359 72.1338" stroke="#231F20" stroke-width="0.75" stroke-miterlimit="10" stroke-linecap="round" stroke-linejoin="round"/>
<path d="M80.0117 75.0645C82.2562 76.7877 84.2004 78.1638 85.5532 80.6282C85.9004 81.2607 86.1785 81.9272 86.4439 82.597C88.686 88.2539 90.0805 94.2353 90.5677 100.288" stroke="#231F20" stroke-width="0.75" stroke-miterlimit="10" stroke-linecap="round" stroke-linejoin="round"/>
<path d="M76.1289 85.9359C77.048 88.1086 77.477 90.4032 77.7963 92.7371C77.9562 93.9012 78.03 95.0767 78.0073 96.2512C78.0011 96.5577 77.9505 96.8898 77.9794 97.1991C78.0139 97.5605 78.3521 97.6107 78.6577 97.6892C79.1288 97.8103 79.6156 97.8959 80.1042 97.876C80.2499 97.8704 80.3951 97.8548 80.5384 97.8292C81.0403 97.7384 81.5072 97.5199 81.9887 97.3552C83.1439 96.9607 84.4068 96.8775 85.6045 97.1173C85.632 94.4944 88.6844 92.6586 88.8102 90.038" stroke="#231F20" stroke-width="0.75" stroke-miterlimit="10" stroke-linecap="round" stroke-linejoin="round"/>
<path d="M90.4429 100.343C89.7462 100.955 89.4377 101.501 87.0953 103.624C85.9118 104.696 84.5817 105.671 83.1446 106.382C82.4247 106.739 81.6328 106.935 80.8391 107.076C79.2663 107.356 77.6556 107.433 76.0625 107.303" stroke="#231F20" stroke-width="0.75" stroke-miterlimit="10" stroke-linecap="round" stroke-linejoin="round"/>
<path d="M72.0445 80.4294C69.1264 81.5755 57.9881 82.1313 55.8992 81.9653C52.0767 81.6621 50.5796 81.2042 48.9325 80.6309C47.2093 80.0306 41.8428 78.1437 39.007 76.1419C34.6878 73.0932 33.3965 72.1382 29.4453 68.9864" stroke="#231F20" stroke-width="0.75" stroke-miterlimit="10" stroke-linecap="round" stroke-linejoin="round"/>
<path d="M45.113 79.6272C43.579 84.8645 40.9783 90.1548 34.8228 92.2607C34.1842 91.2442 33.7032 90.1548 32.2235 90.5191C32.1062 89.5205 30.7051 88.2651 30.251 87.3645C29.2861 85.4511 23.0994 81.2984 20.019 83.9071C19.1652 84.6304 18.161 85.2401 17.7069 86.2543C16.74 85.0897 14.7543 84.9809 13.2354 84.8168C11.716 84.6526 10.5543 84.593 9.04297 84.8168" stroke="#231F20" stroke-width="0.75" stroke-miterlimit="10" stroke-linecap="round" stroke-linejoin="round"/>
<path d="M35.5655 91.9862C35.3039 93.7965 34.8285 94.4639 33.9477 95.9804C33.5069 96.7387 32.0244 98.0712 31.3281 98.6133" stroke="#231F20" stroke-width="0.75" stroke-miterlimit="10" stroke-linecap="round" stroke-linejoin="round"/>
<path d="M31.9042 90.3996C32.0674 96.4515 31.0906 102.532 29.0391 108.239" stroke="#231F20" stroke-width="0.75" stroke-miterlimit="10" stroke-linecap="round" stroke-linejoin="round"/>
<path d="M29.7656 112.706C31.3039 113.111 32.775 113.761 34.1042 114.623" stroke="#231F20" stroke-width="0.75" stroke-miterlimit="10" stroke-linecap="round" stroke-linejoin="round"/>
<path d="M49.8525 81.2982C50.9385 93.5888 49.606 103.016 36.3164 115.189" stroke="#231F20" stroke-width="0.75" stroke-miterlimit="10" stroke-linecap="round" stroke-linejoin="round"/>
<path d="M60.6523 82.3097C62.5572 90.1893 63.0463 98.4053 61.8131 107.141" stroke="#231F20" stroke-width="0.75" stroke-miterlimit="10" stroke-linecap="round" stroke-linejoin="round"/>
<path d="M57.748 109.879C57.563 110.126 57.9221 110.106 57.6103 110.124C57.3393 110.139 57.1141 110.326 56.9112 110.503C55.6809 111.578 50.4681 116.214 49.2383 117.288" stroke="#231F20" stroke-width="0.75" stroke-miterlimit="10" stroke-linecap="round" stroke-linejoin="round"/>
<path d="M62.3036 107.998C61.0056 106.346 58.7327 105.496 56.6467 105.882C55.4059 106.112 53.9925 106.703 52.9921 105.945C52.7617 105.77 52.5834 105.538 52.3729 105.34C52.0016 104.992 51.5375 104.757 51.0726 104.543C50.4307 104.248 49.6473 103.99 49.0457 104.358C48.3068 104.811 48.3725 105.971 48.9482 106.614C49.5234 107.257 50.8062 106.927 51.5418 107.385C54.0077 108.922 57.0606 109.645 59.8822 110.812" stroke="#231F20" stroke-width="0.75" stroke-miterlimit="10" stroke-linecap="round" stroke-linejoin="round"/>
<path d="M68.2422 109.856C69.1447 109.634 70.1456 109.842 70.8802 110.404C71.7151 111.042 72.2241 112.104 73.2061 112.491C73.6285 112.657 74.0959 112.677 74.5301 112.812C76.0045 113.27 76.7249 114.864 77.8332 115.924" stroke="#231F20" stroke-width="0.75" stroke-miterlimit="10" stroke-linecap="round" stroke-linejoin="round"/>
<path d="M66.2852 113.133C67.9616 113.828 71.4723 115.124 73.215 115.638" stroke="#231F20" stroke-width="0.75" stroke-miterlimit="10" stroke-linecap="round" stroke-linejoin="round"/>
<path d="M62.5551 108.031C63.7765 107.991 64.3441 107.766 65.5144 108.112C66.3365 108.354 67.7967 109.279 68.0228 110.094C68.1047 110.39 66.4453 113.186 65.1388 113.468C63.8323 113.75 60.6119 113.034 60.3693 112.879C59.5325 112.344 59.7515 110.821 60.2534 109.972C60.7553 109.123 61.3792 108.822 62.1441 108.191" stroke="#231F20" stroke-width="0.75" stroke-miterlimit="10" stroke-linecap="round" stroke-linejoin="round"/>
<path d="M68.3359 108.978C74.0264 92.0972 82.7897 67.3547 90.3023 41.9897C91.1438 39.1482 94.2842 32.0065 94.9876 29.1291C97.3305 19.5442 95.5193 25.1656 97.4885 18.1175" stroke="#231F20" stroke-width="0.75" stroke-miterlimit="10" stroke-linecap="round" stroke-linejoin="round"/>
</g>
<circle cx="58.5" cy="59.5" r="58.125" stroke="black" stroke-width="0.75"/>
</svg>
