<svg width="24" height="20" viewBox="0 0 24 20" fill="none" xmlns="http://www.w3.org/2000/svg">
<path fill-rule="evenodd" clip-rule="evenodd" d="M21.2309 4.95605C21.1439 4.62955 21.0098 4.31648 20.8324 4.02606L20.816 3.99928L20.8009 3.9725C20.6371 3.68157 20.4278 3.41675 20.1804 3.18736L20.1678 3.17641L20.1577 3.16667C19.7702 2.79537 19.3121 2.49984 18.8084 2.29632C17.7957 1.89906 16.6624 1.89862 15.6494 2.29511C15.1954 2.48013 14.7767 2.73332 14.4085 3.04616L14.358 3.10581L11.9078 5.45878L9.45876 3.10581L9.40832 3.04616C9.0393 2.73352 8.62078 2.47996 8.16868 2.29511C7.15565 1.89862 6.02238 1.89906 5.00968 2.29632C4.50524 2.49961 4.04621 2.7954 3.65906 3.16667L3.65023 3.17397L3.64267 3.18128C3.12563 3.66331 2.76243 4.27438 2.58967 4.94388L2.58714 4.95362L2.58462 4.96335C2.49004 5.31149 2.4459 5.67059 2.45095 6.0309V6.05889C2.45095 6.39608 2.49509 6.72961 2.5821 7.05218C2.67542 7.3845 2.80909 7.70464 2.98186 8.00652C3.16724 8.31084 3.39423 8.59081 3.65528 8.84035L3.66158 8.84522L11.909 16.7684L20.1603 8.83913L20.1666 8.83304C20.4201 8.59324 20.6382 8.31814 20.8072 8.02234L20.8198 8.00287L20.8312 7.98217C21.1845 7.40287 21.3688 6.74208 21.3646 6.06985V6.02968C21.3703 5.66963 21.3253 5.31051 21.2309 4.96214L21.2297 4.95483L21.2309 4.95605ZM11.9078 19.3441L2.3261 10.1392C1.94194 9.77313 1.60951 9.35974 1.33742 8.90973C1.0852 8.47152 0.889733 8.00652 0.753537 7.52327C0.624216 7.04516 0.558948 6.55302 0.559331 6.05889C0.550813 5.53344 0.616144 5.0093 0.753537 4.50079C1.01274 3.49933 1.55753 2.58803 2.3261 1.87028C2.88939 1.3309 3.55579 0.902201 4.28834 0.607974C5.76396 0.0265086 7.41691 0.0265086 8.89254 0.607974C9.58507 0.889416 10.2217 1.28482 10.7741 1.77655L10.8548 1.87028L11.9078 2.88183L12.962 1.87028L13.0427 1.77655L13.0982 1.72786C13.6377 1.25859 14.255 0.880036 14.9243 0.607974C16.3999 0.0265086 18.0528 0.0265086 19.5285 0.607974C20.2612 0.902553 20.9283 1.33103 21.4907 1.87028C21.8779 2.22937 22.2057 2.64446 22.463 3.09972C22.7303 3.53793 22.9321 4.01023 23.0633 4.50201C23.2007 5.01083 23.265 5.53425 23.2575 6.06011C23.2637 7.06137 22.9891 8.04559 22.463 8.90851C22.2022 9.36195 21.8747 9.77649 21.4907 10.1392L11.9078 19.3441Z" fill="black"/>
</svg>
