<svg width="118" height="117" viewBox="0 0 118 117" fill="none" xmlns="http://www.w3.org/2000/svg">
<mask id="mask0_207_692" style="mask-type:luminance" maskUnits="userSpaceOnUse" x="0" y="0" width="118" height="117">
<path d="M0.96875 -6.10352e-05H117.003V116.788H0.96875V-6.10352e-05Z" fill="white"/>
</mask>
<g mask="url(#mask0_207_692)">
<path d="M10.501 90.0486C4.54777 80.9556 1.08594 70.084 1.08594 58.4036C1.08594 26.4549 26.985 0.555783 58.9333 0.555783C90.8816 0.555783 116.781 26.4549 116.781 58.4036C116.781 90.3519 90.8816 116.251 58.9333 116.251C38.6654 116.251 20.8315 105.827 10.501 90.0486Z" stroke="#181615" stroke-width="0.75" stroke-miterlimit="10" stroke-linecap="round" stroke-linejoin="round"/>
<path d="M117.202 58.2327C117.202 90.181 91.161 116.08 59.0383 116.08C26.9156 116.08 0.875 90.181 0.875 58.2327C0.875 26.2845 26.9156 0.385345 59.0383 0.385345C91.161 0.385345 117.202 26.2845 117.202 58.2327Z" fill="#B7B2AF"/>
<path d="M87.1492 79.1953C85.8374 78.2855 84.3686 77.1877 83.2153 76.0842C80.2561 73.2538 74.853 65.0198 74.4669 63.733C74.3931 63.4866 75.1412 58.8014 74.9818 52.6686C74.875 48.5631 73.1961 45.814 72.3441 41.7974C70.9934 35.4285 69.8353 32.7269 67.5198 28.2881C66.8079 26.9241 65.9757 26.5513 66.169 26.1653C66.4581 25.587 67.4182 23.6983 66.2334 18.4461C65.396 14.7351 63.3795 15.0788 62.8882 12.6565C62.5327 10.9027 63.3452 9.24213 62.7593 6.48084C62.221 3.941 58.7714 0.305206 58.5142 0.305206C55.9179 0.305206 51.6597 0.655945 49.1226 1.20604C39.0931 3.38009 32.3974 5.19447 23.649 12.3993C20.1454 15.2847 15.6393 20.607 12.3533 23.7388C9.40206 26.5518 3.57952 38.7418 2.42151 45.9786C-2.09585 74.2125 8.5346 87.1613 12.5851 92.1663C16.6356 97.1717 22.5893 106.327 37.801 112.237C55.6838 119.184 77.1685 116.225 90.5485 106.705C99.6777 100.208 109.846 88.4355 110.104 84.5754C110.104 87.1487 102.124 87.2041 98.9236 86.5892C95.7405 85.9775 88.3641 80.0379 87.1492 79.1953Z" fill="#E2D4C9"/>
<path d="M43.7804 21.341C44.6582 20.9357 46.0908 19.3607 47.6396 19.3466C49.7215 19.3273 51.9453 19.3696 53.2364 19.2182C57.207 18.7523 59.311 16.8429 61.9204 13.8146C64.8298 10.4383 62.6219 3.56121 59.2188 1.46333C56.7232 -0.074585 49.7497 1.31146 46.868 1.84933C40.0591 3.12113 26.342 10.3198 24.0965 11.8846C17.7285 16.3234 12.3968 23.5978 8.09529 30.4458C0.360121 42.7623 0.167352 60.5171 2.67616 72.0964C6.40034 66.4224 11.3258 65.5907 17.9213 63.9907C19.5213 63.6028 23.1919 63.1618 24.4825 64.184C25.9767 65.3664 25.2944 66.7059 24.4825 68.4296C23.6705 70.1532 22.0851 71.4146 21.5877 73.2539C20.8222 76.0862 22.4692 81.2101 25.2545 82.1316C33.8101 84.962 35.5088 81.1697 38.8272 82.5176C40.8612 83.3432 39.9208 82.3244 42.8157 83.4824C43.4767 83.7466 45.1373 81.976 45.71 81.5524C50.2875 78.1686 54.0479 77.1286 59.6909 77.8733C64.149 78.462 69.5587 80.8114 71.5691 84.8332C76.5867 94.8684 75.622 107.22 71.7624 114.746C71.3392 114.235 76.6192 115.043 89.1303 107.734C97.5289 102.828 105.297 93.3328 110.358 85.0264C107.849 86.57 102.674 87.7068 100.176 87.0204C92.2179 84.8332 89.8483 81.1222 89.3235 80.7803C81.5178 75.7002 79.2883 72.6752 74.2712 63.4119C74.4263 67.154 72.1893 71.5425 70.1723 74.6983C69.955 75.0377 68.5469 75.5813 68.152 75.522C51.6924 73.0612 37.609 59.3224 32.7804 43.7275C30.3431 35.8546 32.5919 27.1184 39.7281 22.6918C41.171 21.7966 41.2716 22.499 43.7804 21.341Z" fill="#C08667"/>
<path d="M46.4184 12.9141C45.7475 15.0962 46.409 17.5138 47.5765 19.4758C47.9474 20.0992 48.2046 20.5322 48.7359 21.0269C50.3974 22.5751 53.273 22.5676 55.2956 21.5342C55.3535 21.1909 56.3714 20.4523 56.7108 20.3761C55.2585 21.0574 56.7814 22.5112 52.8512 23.7214C51.3665 24.1784 48.9103 24.2748 47.5243 23.5737C46.1382 22.8727 45.5392 22.1661 44.8744 20.7622C43.9707 18.8533 43.8645 15.8325 44.4889 13.8145C45.0014 12.1576 46.3761 9.82938 48.0908 9.31172C47.4476 10.7269 46.7617 11.7989 46.4184 12.9141Z" fill="#C08667"/>
<path d="M37.8149 22.2681C38.0684 23.9983 39.3618 25.0595 40.8912 25.9072C42.4212 26.7549 44.3197 27.2524 46.0377 27.5796C47.6729 27.8913 49.8037 28.1391 51.4408 27.8373C56.9206 26.8255 61.6044 23.2052 59.6748 16.644C60.2278 18.3794 62.1192 19.9888 61.2217 24.2033C61.0585 24.9702 60.46 25.5753 59.9222 26.1456C57.7044 28.496 54.4974 29.7889 51.273 29.9981C48.0486 30.2078 45.3588 29.9854 42.4353 28.6088C41.1785 28.0173 39.8381 26.7272 38.9617 25.65C38.0853 24.5724 37.3622 23.5813 37.8149 22.2681Z" fill="#C08667"/>
<path d="M36.7228 17.5823C37.2151 17.3374 37.7346 16.9439 37.9001 16.4196C38.4813 14.578 37.7422 12.7589 35.8737 12.2704C34.0053 11.7824 31.4847 12.4862 30.181 13.9108C28.8772 15.3359 27.651 16.9975 27.6721 18.9284C27.7055 22.0198 28.7098 24.2719 29.2162 25.0077C29.9525 26.0787 30.6041 26.6542 31.3385 27.5165C33.2892 29.8062 34.704 31.3521 37.3745 32.7363C39.7573 33.9709 44.2953 35.2126 46.9701 35.4289C50.0525 35.6776 51.8274 35.3316 54.8821 34.8497C57.8512 34.3814 64.1453 31.0865 65.2065 28.0953C65.7406 26.5907 66.4214 25.2305 66.8121 23.6823C67.4684 21.0818 66.521 18.3149 65.1101 16.0336C63.5077 13.4444 62.0324 11.7358 59.8033 10.2445C58.8009 9.57353 57.3631 9.4306 56.3292 10.0512C55.4016 10.6084 54.568 12.112 55.2102 12.9832C55.8525 13.8539 57.0829 14.3702 58.1629 14.2968C59.0313 13.6217 58.9213 12.5976 58.5489 12.174C59.6397 11.9686 59.5945 13.9592 60.6576 14.2794C61.0643 14.4017 61.5857 14.1398 61.9219 14.3984C64.0484 16.0336 65.5323 22.8129 64.5313 25.7797C62.739 31.0888 58.547 31.6986 56.6189 32.4377C55.2079 32.9784 51.5655 33.4951 50.0577 33.5953C45.0156 33.9319 42.0776 33.1378 37.4177 31.1833C36.626 30.8514 35.6043 30.1057 34.9193 29.5885C33.8454 28.7779 32.3959 27.1888 31.8214 25.9725C30.7997 23.8111 30.2289 22.4533 30.567 20.0864C30.8561 18.06 32.7372 14.7896 33.1355 15.0655C33.5582 15.3585 34.4797 18.6985 36.7228 17.5823Z" fill="#C08667"/>
</g>
<mask id="mask1_207_692" style="mask-type:luminance" maskUnits="userSpaceOnUse" x="0" y="0" width="117" height="117">
<path d="M0.859375 58.2161C0.859375 90.283 26.8537 116.278 58.9197 116.278C90.9852 116.278 116.98 90.283 116.98 58.2161C116.98 26.1491 90.9852 0.153824 58.9197 0.153824C26.8537 0.153824 0.859375 26.1491 0.859375 58.2161Z" fill="white"/>
</mask>
<g mask="url(#mask1_207_692)">
<path d="M34.8828 41.4346C38.8388 39.8905 38.9798 39.6508 40.4792 38.8294C42.3947 37.78 48.7057 38.5501 49.8341 38.559C49.9042 38.5595 49.977 38.5506 50.0508 38.5351C50.5845 38.4227 52.0053 41.2018 52.058 41.2418C52.153 41.3133 50.4166 40.4989 48.1984 40.1802C45.1103 39.7368 42.4088 38.9258 40.4792 40.4698C39.1778 41.5107 36.5472 41.3518 34.8828 41.4346Z" stroke="#231F20" stroke-width="0.75" stroke-miterlimit="10" stroke-linecap="round" stroke-linejoin="round"/>
<path d="M59.5886 36.6101C59.3215 37.2439 59.0098 39.3116 59.3958 38.9261C59.9586 38.3628 61.8595 37.7954 62.5798 37.2857C64.0359 36.2556 67.3077 34.7769 70.4597 34.8159C68.6585 33.4256 59.7226 36.2922 59.5886 36.6101Z" stroke="#231F20" stroke-width="0.75" stroke-miterlimit="10" stroke-linecap="round" stroke-linejoin="round"/>
<path d="M57.7534 64.4006C61.3243 63.8665 63.4165 60.9811 67.9813 61.9881C67.5065 62.0446 66.5929 60.4822 66.2446 60.155C64.9657 58.9556 63.7357 59.1902 61.999 60.3477C61.2923 60.2307 58.9114 59.4793 56.9813 62.0845C56.1727 63.1763 53.4231 65.0988 52.543 65.1726C52.6069 65.1054 53.1542 65.143 53.2191 65.0762C56.1407 65.1185 57.5606 68.2602 61.5166 67.7778C64.6056 67.4012 66.3409 67.0058 67.7881 62.3742" stroke="#231F20" stroke-width="0.75" stroke-miterlimit="10" stroke-linecap="round" stroke-linejoin="round"/>
<path d="M1.88281 73.3752C6.22668 69.0713 7.4792 66.7171 17.6103 64.3047C17.9127 64.2328 21.4699 63.3399 24.2039 63.9831C24.8354 64.1317 25.2689 64.7373 25.4264 65.3664C26.039 67.8145 23.5659 69.8132 22.3952 72.0488C21.0581 74.6023 21.5137 77.9198 23.3186 80.1672C25.1241 82.4141 28.1228 83.5688 30.9969 83.3488C33.265 83.1758 35.448 82.2223 37.7222 82.2811C41.0232 82.3666 43.8931 84.559 46.1386 86.9804C48.3846 89.4017 50.3076 92.1832 53.0063 94.0855C54.6044 95.212 56.4211 95.9892 58.078 97.0274C61.1933 98.979 63.6565 101.792 66.0713 104.565C68.7423 107.63 74.4661 117.765 74.0571 116.893" stroke="#231F20" stroke-width="0.75" stroke-miterlimit="10" stroke-linecap="round" stroke-linejoin="round"/>
<path d="M14.8756 72.1842C14.4895 77.2018 17.2104 83.7465 24.1383 85.9507C26.893 86.8266 29.7582 86.4354 36.4891 87.1082C39.0623 87.3659 41.2528 89.8107 42.3032 91.4328C44.9502 95.5204 56.0109 109.059 59.1229 112.805" stroke="#231F20" stroke-width="0.75" stroke-miterlimit="10" stroke-linecap="round" stroke-linejoin="round"/>
<path d="M38.6797 93.0271C43.4448 98.8919 54.3028 112.218 56.9804 117.086" stroke="#231F20" stroke-width="0.75" stroke-miterlimit="10" stroke-linecap="round" stroke-linejoin="round"/>
<path d="M32.4883 92.2392C33.6087 95.2224 42.2908 112.669 42.5212 115.848" stroke="#231F20" stroke-width="0.75" stroke-miterlimit="10" stroke-linecap="round" stroke-linejoin="round"/>
<path d="M27.4219 88.523C27.6245 90.3162 30.7751 108.718 30.6336 110.523" stroke="#231F20" stroke-width="0.75" stroke-miterlimit="10" stroke-linecap="round" stroke-linejoin="round"/>
<path d="M42.9414 84.214C47.2336 78.6815 54.8723 78.1089 57.0755 77.9095C61.8496 77.4779 68.1367 79.5725 70.9407 83.4603C73.7453 87.3486 74.6245 91.659 75.0227 96.4364C75.6697 104.202 75.6683 109.642 72.1279 113.998" stroke="#231F20" stroke-width="0.75" stroke-miterlimit="10" stroke-linecap="round" stroke-linejoin="round"/>
<path d="M33.147 30.8217C29.6735 39.5061 34.3446 47.0114 37.0066 52.4362C38.8125 56.1162 48.4458 66.4198 49.9108 67.7043C51.0702 68.7213 52.3895 69.5356 53.7022 70.3453C57.9055 72.9382 66.9605 74.7385 71.1637 77.331C78.0963 81.6076 82.9217 88.1509 87.1042 95.1404C88.4381 97.3699 89.7499 99.6432 91.5233 101.542C93.2968 103.441 95.6091 104.962 98.1903 105.261" stroke="#231F20" stroke-width="0.75" stroke-miterlimit="10" stroke-linecap="round" stroke-linejoin="round"/>
<path d="M59.5871 77.768C52.8007 77.934 46.1371 75.2823 40.7038 71.2125C35.2701 67.1432 30.0564 68.6463 22.7232 54.7515C20.8426 51.1877 21.2798 40.4721 21.1797 39.1199" stroke="#231F20" stroke-width="0.75" stroke-miterlimit="10" stroke-linecap="round" stroke-linejoin="round"/>
<path d="M81.6774 114.242C79.754 112.608 79.3816 109.824 79.2166 107.305C78.982 103.72 78.8959 100.113 78.2866 96.5724C77.6768 93.0316 74.7011 84.2357 72.5167 81.3832C68.7784 76.5019 60.8876 77.8161 55.0317 75.9439C49.315 74.1168 45.2344 67.7249 40.6752 63.8216C37.4202 61.0349 30.6404 57.2604 29.2892 51.8568C29.0663 50.9639 23.886 40.0843 28.9036 28.1195" stroke="#231F20" stroke-width="0.75" stroke-miterlimit="10" stroke-linecap="round" stroke-linejoin="round"/>
<path d="M15.8754 18.084C11.2334 26.3905 10.2202 38.2857 8.34943 45.8741C5.78655 56.2676 2.20812 63.8279 1.69141 65.5586" stroke="#231F20" stroke-width="0.75" stroke-miterlimit="10" stroke-linecap="round" stroke-linejoin="round"/>
<path d="M66.4375 25.9967C70.8759 33.0407 71.5134 36.9704 72.9023 42.9796C73.4308 45.2669 75.3519 48.9582 75.4111 53.2076C75.6039 67.1024 71.0437 75.902 69.0563 75.8197" stroke="#231F20" stroke-width="0.75" stroke-miterlimit="10" stroke-linecap="round" stroke-linejoin="round"/>
<path d="M73.2891 69.0313C74.8331 74.2417 79.2715 79.8385 85.9831 86.1618C89.6546 89.6208 92.5386 93.8645 97.7504 95.3319C99.2385 95.7508 100.796 95.8425 102.34 95.9314C103.765 96.0141 105.191 96.0964 106.617 96.1787C108.194 96.2694 109.809 96.3564 111.32 95.8961" stroke="#231F20" stroke-width="0.75" stroke-miterlimit="10" stroke-linecap="round" stroke-linejoin="round"/>
<path d="M39.7951 24.8972C40.7669 25.7181 42.0152 26.3204 43.2264 26.697C46.6901 27.7737 50.7048 28.6026 53.9701 27.0238C62.4802 22.9089 59.7955 19.0347 59.8256 16.9213C60.1086 17.0111 60.2483 17.1879 60.4354 17.407C62.1708 19.4386 62.2808 22.5671 61.04 24.9334C59.7993 27.2998 57.4 28.9223 54.8258 29.6374C52.2512 30.3521 49.5097 30.2383 46.8777 29.7785C44.7018 29.3981 42.5089 28.7568 40.7594 27.4079C39.0099 26.059 37.7725 23.8864 38.0198 21.6911C38.0945 22.9869 38.7998 24.057 39.7951 24.8972ZM39.7951 24.8972C39.7965 24.9179 39.8026 24.9367 39.8026 24.9583" stroke="#231F20" stroke-width="0.75" stroke-miterlimit="10" stroke-linecap="round" stroke-linejoin="round"/>
<path d="M34.2746 15.7355C34.024 17.2409 36.1351 18.3755 37.4158 17.5456C38.6961 16.7153 38.7845 14.6879 37.814 13.5097C36.8431 12.3319 35.143 11.9544 33.6408 12.2238C30.6684 12.7565 28.4121 15.5723 28.0463 18.5696C27.6801 21.5674 28.9721 24.6075 31.014 26.8323C33.0555 29.0576 40.8616 34.9154 53.7945 33.1363C55.8482 32.8538 57.3424 32.5171 59.1977 31.5923C62.3873 30.0022 65.7306 27.7318 66.5308 24.2591C67.3311 20.786 66.7241 16.3467 62.0925 11.7146C60.6721 10.2947 57.8469 8.82027 56.3028 10.3638C54.6305 12.0367 55.3381 14.0307 57.6541 14.4167C58.4651 14.5516 60.2212 13.1204 58.8117 12.2939" stroke="#231F20" stroke-width="0.75" stroke-miterlimit="10" stroke-linecap="round" stroke-linejoin="round"/>
<path d="M36.6228 30.627C35.3646 30.2428 32.837 27.1379 32.1844 25.9953C29.8683 21.9425 31.0165 18.806 32.3772 16.1529C30.544 17.7933 30.2539 18.3269 29.6756 19.6269C29.0973 20.9265 29.1476 24.5552 30.0611 25.6455" stroke="#231F20" stroke-width="0.75" stroke-miterlimit="10" stroke-linecap="round" stroke-linejoin="round"/>
<path d="M63.6367 28.5049C65.3477 25.4215 65.1968 22.6208 64.4544 19.1735C64.2165 18.0686 63.9414 16.9501 63.3603 15.9806C62.7787 15.0116 61.8402 14.1977 60.7227 14.028C63.058 13.9344 65.6208 16.8885 66.4352 19.1453" stroke="#231F20" stroke-width="0.75" stroke-miterlimit="10" stroke-linecap="round" stroke-linejoin="round"/>
<path d="M46.7223 16.797C46.8662 17.9616 48.2 21.5569 52.2801 22.3238C53.9521 22.6378 55.6672 21.6425 56.8854 20.4539C56.8713 21.5301 55.9263 22.3477 54.9972 22.8898C53.6037 23.7023 52.0225 24.2514 50.4098 24.235C48.7967 24.219 47.1535 23.5904 46.1045 22.3651C42.6037 18.2761 44.8313 10.0214 48.5367 9.49105C46.656 11.7145 46.3631 13.8871 46.7223 16.797Z" stroke="#231F20" stroke-width="0.75" stroke-miterlimit="10" stroke-linecap="round" stroke-linejoin="round"/>
<path d="M61.0273 44.3369C61.3875 42.3199 63.1469 40.7613 65.0995 40.1412C67.0521 39.5205 69.1683 39.6936 71.182 40.0706" stroke="#231F20" stroke-width="0.75" stroke-miterlimit="10" stroke-linecap="round" stroke-linejoin="round"/>
<path d="M61.5195 42.8821C63.5121 43.5408 65.8676 43.9315 67.659 42.8379C68.6153 42.254 69.2434 41.2709 69.8382 40.3216" stroke="#231F20" stroke-width="0.75" stroke-miterlimit="10" stroke-linecap="round" stroke-linejoin="round"/>
<path d="M66.3084 39.9379C66.9407 40.3761 67.2713 41.2097 67.1114 41.962C66.9516 42.7147 66.3102 43.3414 65.5547 43.4844" stroke="#231F20" stroke-width="0.75" stroke-miterlimit="10" stroke-linecap="round" stroke-linejoin="round"/>
<path d="M61.8398 42.5284C61.9503 43.0615 62.8596 42.8095 63.3613 42.5975C63.8775 42.3784 64.3858 41.5857 64.4131 40.856C64.4243 40.5508 64.517 40.7196 64.6359 40.4385C65.0647 40.8061 65.2039 41.4521 65.005 41.9811C64.6058 43.0432 63.4323 43.0864 62.869 43.0432" stroke="#231F20" stroke-width="0.75" stroke-miterlimit="10" stroke-linecap="round" stroke-linejoin="round"/>
<path d="M14.8593 72.1768C14.8941 71.4734 14.8673 70.6388 14.2829 70.2458C13.9999 70.0554 13.6435 70.0178 13.3031 70.0008C12.6679 69.9689 12.0303 69.9886 11.3984 70.0596" stroke="#231F20" stroke-width="0.75" stroke-miterlimit="10" stroke-linecap="round" stroke-linejoin="round"/>
<path d="M21.6662 88.6416C20.6328 93.3687 19.5998 98.0962 18.5664 102.823" stroke="#231F20" stroke-width="0.75" stroke-miterlimit="10" stroke-linecap="round" stroke-linejoin="round"/>
<path d="M17.6147 85.3141C15.0025 88.9452 13.0057 93.0183 11.7344 97.3066" stroke="#231F20" stroke-width="0.75" stroke-miterlimit="10" stroke-linecap="round" stroke-linejoin="round"/>
<path d="M13.3355 81.132C10.3453 84.2549 7.33855 87.546 5.84766 91.6045" stroke="#231F20" stroke-width="0.75" stroke-miterlimit="10" stroke-linecap="round" stroke-linejoin="round"/>
<path d="M8.63825 71.348C5.27327 73.3251 3.66248 75.5339 1.07422 78.4551" stroke="#231F20" stroke-width="0.75" stroke-miterlimit="10" stroke-linecap="round" stroke-linejoin="round"/>
<path d="M31.8906 27.8302C38.3611 35.8917 50.5722 37.2495 59.3902 33.3302C66.3373 30.2426 68.0088 23.8423 66.5301 19.0494" stroke="#231F20" stroke-width="0.75" stroke-miterlimit="10" stroke-linecap="round" stroke-linejoin="round"/>
<path d="M25.1406 8.24276C27.7406 8.04294 32.7249 8.90616 35.1848 9.77268C37.6442 10.6392 39.8855 12.3586 40.9504 14.739C41.6707 16.3484 41.8212 18.1755 41.5772 19.9217C41.469 20.6951 41.2767 21.4793 40.8268 22.1178C40.3773 22.7563 39.6264 23.2265 38.8478 23.1644" stroke="#231F20" stroke-width="0.75" stroke-miterlimit="10" stroke-linecap="round" stroke-linejoin="round"/>
<path d="M34.6914 3.99631C35.352 3.51344 42.121 4.38231 44.823 11.1367" stroke="#231F20" stroke-width="0.75" stroke-miterlimit="10" stroke-linecap="round" stroke-linejoin="round"/>
<path d="M41.1562 22.2324C42.5968 22.003 43.8846 21.2874 44.5903 20.3235" stroke="#231F20" stroke-width="0.75" stroke-miterlimit="10" stroke-linecap="round" stroke-linejoin="round"/>
<path d="M42.9922 1.58374C45.8865 1.93683 49.2849 4.61208 50.622 7.20363C51.9592 9.79519 52.3866 12.8668 51.8379 15.7306C51.3865 18.0842 49.8223 18.9277 48.8359 19.4336" stroke="#231F20" stroke-width="0.75" stroke-miterlimit="10" stroke-linecap="round" stroke-linejoin="round"/>
<path d="M45.4023 -0.827778C46.1005 -0.392404 54.3759 -0.249004 57.0775 9.49707" stroke="#231F20" stroke-width="0.75" stroke-miterlimit="10" stroke-linecap="round" stroke-linejoin="round"/>
<path d="M49.9375 19.1453C50.4956 19.3997 53.8549 19.2417 54.4422 19.0654C55.2306 18.8289 56.0379 18.5398 56.6209 17.9586C57.2735 17.3075 57.5636 16.314 57.3647 15.4141" stroke="#231F20" stroke-width="0.75" stroke-miterlimit="10" stroke-linecap="round" stroke-linejoin="round"/>
<path d="M63.3466 11.1367C63.9254 5.92634 61.3202 -1.8897 48.3906 -1.79332" stroke="#231F20" stroke-width="0.75" stroke-miterlimit="10" stroke-linecap="round" stroke-linejoin="round"/>
<path d="M26.8754 14.3205C24.8984 14.1635 22.8414 16.4588 21.3754 17.7941C19.9094 19.1298 16.497 27.7075 16.165 29.663C13.5598 45.0054 13.8965 58.1997 14.1386 61.2158" stroke="#231F20" stroke-width="0.75" stroke-miterlimit="10" stroke-linecap="round" stroke-linejoin="round"/>
<path d="M23.9772 24.1626C20.0212 26.7678 21.2197 38.1947 21.1788 38.9258" stroke="#231F20" stroke-width="0.75" stroke-miterlimit="10" stroke-linecap="round" stroke-linejoin="round"/>
<path d="M51.1916 45.3919C49.0688 43.5587 44.4372 43.6551 42.9256 44.5235C41.0257 45.6148 40.1747 46.5791 38.9414 48.3906" stroke="#231F20" stroke-width="0.75" stroke-miterlimit="10" stroke-linecap="round" stroke-linejoin="round"/>
<path d="M46.4656 44.04C46.6555 44.9267 46.7853 45.7914 45.2432 46.4524C44.3428 46.8384 42.0272 47.0956 41.3398 45.8868" stroke="#231F20" stroke-width="0.75" stroke-miterlimit="10" stroke-linecap="round" stroke-linejoin="round"/>
<path d="M44.496 44.1988C44.7348 44.6022 44.4151 45.4152 44.0832 45.7462C43.7512 46.0767 43.0704 46.5008 42.668 46.2605C43.1207 46.0598 43.762 44.913 43.6553 44.4292" stroke="#231F20" stroke-width="0.75" stroke-miterlimit="10" stroke-linecap="round" stroke-linejoin="round"/>
<path d="M49.8733 44.78C49.5813 44.7993 49.6344 46.3076 45.3705 47.6104C41.9684 48.6499 40.8122 47.2606 39.8385 47.3532C39.4906 47.3861 38.9043 48.2385 38.625 48.4482" stroke="#231F20" stroke-width="0.75" stroke-miterlimit="10" stroke-linecap="round" stroke-linejoin="round"/>
<path d="M25.7188 69.8042C27.5519 72.313 30.0161 74.7621 33.3383 76.3898C36.6609 78.0175 40.2488 79.0509 43.5724 80.6768" stroke="#231F20" stroke-width="0.75" stroke-miterlimit="10" stroke-linecap="round" stroke-linejoin="round"/>
<path d="M56.8205 53.0799C55.6625 53.2087 53.4757 53.0799 54.3761 55.4279C54.7424 56.3823 55.6893 57.1393 56.6917 56.9395" stroke="#231F20" stroke-width="0.75" stroke-miterlimit="10" stroke-linecap="round" stroke-linejoin="round"/>
<path d="M57.6508 55.9863C57.4397 56.0248 57.2102 55.9049 57.1214 55.7098C57.033 55.5142 58.3725 54.6552 58.8535 54.4357C58.9334 54.3995 59.9024 55.6778 60.0665 56.006C60.231 56.3347 60.9711 55.8274 61.3209 55.7169C61.6086 55.6257 61.761 54.3078 61.8033 53.9796C61.8978 53.2527 62.6585 53.0656 63.2509 53.4972C63.4653 53.6538 63.2509 54.2692 63.1545 54.5588" stroke="#231F20" stroke-width="0.75" stroke-miterlimit="10" stroke-linecap="round" stroke-linejoin="round"/>
<path d="M63.2508 54.6553C66.0488 53.2081 64.28 51.5569 63.7967 51.4215C61.4496 50.7632 59.4387 48.0311 59.0273 46.6399" stroke="#231F20" stroke-width="0.75" stroke-miterlimit="10" stroke-linecap="round" stroke-linejoin="round"/>
<path d="M74.6758 63.0264C75.4708 65.476 76.769 67.7365 78.258 69.8377C83.8182 77.6824 86.4078 77.909 91.1678 81.8975" stroke="#231F20" stroke-width="0.75" stroke-miterlimit="10" stroke-linecap="round" stroke-linejoin="round"/>
<path d="M84.9922 58.6111C86.6002 59.3187 88.2584 59.4137 90.2722 58.7296C95.7345 56.8743 100.465 49.0343 102.351 46.3318C103.401 44.8259 103.896 43.6354 104.341 41.8544C105.697 36.4419 104.462 34.4121 104.59 31.357C104.718 28.2699 106.072 27.2633 106.115 24.0342" stroke="#231F20" stroke-width="0.75" stroke-miterlimit="10" stroke-linecap="round" stroke-linejoin="round"/>
<path d="M97.8012 15.6756C97.5553 18.2149 97.3042 20.7792 96.4993 23.2001C95.6944 25.621 94.2754 27.9206 92.1366 29.3109C88.8619 31.4402 83.3859 31.9499 82.1851 35.667C78.3062 47.676 80.0811 52.5855 80.3721 53.6128C80.7652 55.0026 81.4535 56.5175 82.423 57.3896" stroke="#231F20" stroke-width="0.75" stroke-miterlimit="10" stroke-linecap="round" stroke-linejoin="round"/>
<path d="M102.723 36.7655C102.363 38.7975 100.711 42.6251 99.8103 43.5631C98.3632 45.0705 97.2493 44.2378 95.8022 45.7452C94.5059 47.0955 94.4942 49.6245 93.615 51.2776C92.7715 52.8639 90.6031 55.9868 89.0407 56.8745C87.7525 57.6065 86.1276 57.4641 84.7039 57.0536C81.7287 56.1965 80.0643 53.7098 80.2256 52.9429" stroke="#231F20" stroke-width="0.75" stroke-miterlimit="10" stroke-linecap="round" stroke-linejoin="round"/>
<path d="M96.1875 50.6993C98.3192 49.7858 97.961 47.0847 96.8307 45.6173C97.1523 47.4185 96.2519 50.8921 96.1875 50.6993Z" stroke="#231F20" stroke-width="0.75" stroke-miterlimit="10" stroke-linecap="round" stroke-linejoin="round"/>
<path d="M94.4499 49.0903C94.4146 50.0974 95.7682 51.876 97.8591 50.1195C99.4675 48.7687 99.6081 46.1959 99.2099 45.2951" stroke="#231F20" stroke-width="0.75" stroke-miterlimit="10" stroke-linecap="round" stroke-linejoin="round"/>
<path d="M83.4489 56.8102C82.6125 58.4187 83.4795 57.2084 81.0045 60.2838C80.02 61.5072 78.9462 61.9567 77.2738 62.5998C77.0161 62.7287 78.5602 63.3719 81.7766 62.0206C81.7766 61.8278 81.841 65.1731 84.5425 67.2314C83.4358 63.0874 83.3455 61.2326 85.2501 57.389" stroke="#231F20" stroke-width="0.75" stroke-miterlimit="10" stroke-linecap="round" stroke-linejoin="round"/>
<path d="M105.131 29.2759C109.184 34.6796 111.017 37.9684 113.047 44.2018C117.866 58.9998 118.665 78.3665 111.242 84.3413C104.12 90.0736 91.7286 85.536 88.2132 78.0369C82.4241 65.6861 97.8888 55.9607 98.3768 56.9372C99.406 58.9956 91.6407 64.1044 91.9445 71.0892C92.4588 82.9261 121.856 84.8557 98.57 52.0484" stroke="#231F20" stroke-width="0.75" stroke-miterlimit="10" stroke-linecap="round" stroke-linejoin="round"/>
<path d="M67.8841 -1.21419C65.3753 5.92622 67.822 15.7757 68.8489 18.8563C71.3577 26.3827 77.9819 33.2659 81.1997 35.4531" stroke="#231F20" stroke-width="0.75" stroke-miterlimit="10" stroke-linecap="round" stroke-linejoin="round"/>
<path d="M91.9393 11.1375C91.039 11.7162 92.0038 18.0851 96.4205 22.7402" stroke="#231F20" stroke-width="0.75" stroke-miterlimit="10" stroke-linecap="round" stroke-linejoin="round"/>
<path d="M86.1611 39.3886C84.8361 42.069 84.7825 45.1759 84.7548 48.1657C84.7416 49.6331 84.728 51.1 84.7148 52.5674C84.9871 49.8573 86.6435 47.4976 88.4089 45.4232C90.1744 43.3488 92.1383 41.3666 93.2502 38.8799C94.0368 37.1205 94.325 33.3305 93.939 32.9445C93.5079 32.5129 87.2039 37.2785 86.1611 39.3886Z" stroke="#231F20" stroke-width="0.75" stroke-miterlimit="10" stroke-linecap="round" stroke-linejoin="round"/>
</g>
<circle cx="59.5" cy="58.5" r="58.125" stroke="black" stroke-width="0.75"/>
</svg>
