<svg width="116" height="116" viewBox="0 0 116 116" fill="none" xmlns="http://www.w3.org/2000/svg">
<mask id="mask0_207_990" style="mask-type:luminance" maskUnits="userSpaceOnUse" x="0" y="0" width="116" height="116">
<path d="M0 57.9995C0 90.5766 25.9564 116 57.9354 116C89.9148 116 115.807 89.7654 115.807 57.9995C115.807 26.2342 89.7209 0 57.7419 0C25.763 0 0 25.4216 0 57.9995Z" fill="white"/>
</mask>
<g mask="url(#mask0_207_990)">
<path d="M116.548 58.0978C116.548 89.9166 90.5801 115.711 58.5473 115.711C26.5145 115.711 0.546875 89.9166 0.546875 58.0978C0.546875 26.279 26.5145 0.484642 58.5473 0.484642C90.5801 0.484642 116.548 26.279 116.548 58.0978Z" fill="#938B89"/>
<path d="M73.8601 13.3408C75.1953 15.5013 75.9035 16.7241 76.2281 18.9151C76.3442 19.7005 76.1634 20.0106 76.1634 21.1707C76.1634 21.8615 77.0767 22.1931 77.1362 22.8464C77.2603 24.2032 76.5109 25.5717 76.8767 26.6808C78.1628 26.7159 79.7107 27.2053 79.8325 28.4769C79.9538 29.7489 79.0101 31.0364 77.7539 31.3114C78.552 31.6612 78.9173 32.4326 79.2775 33.2218C79.4456 33.5908 78.3647 33.1342 78.3043 33.4152C78.2354 33.7355 79.1482 34.764 78.692 34.676C79.2335 35.9789 77.5034 36.8445 75.8389 36.7662C77.7123 43.9334 69.7447 67.5317 66.9383 72.7547C63.3175 79.4929 61.5008 80.7171 60.3978 85.7439C59.2213 91.1061 59.4574 100.792 62.1495 105.206C65.1455 110.118 73.3735 114.132 74.5411 113.455C63.4473 117.805 43.0834 116.87 27.2208 107.301C20.7857 103.418 11.0094 95.3699 6.39096 85.0672C2.54487 76.4865 0.0940019 73.564 -0.070389 58.0265C-0.120034 53.3365 0.0420115 48.3963 1.22413 43.8552C3.25068 36.0703 6.88086 28.4713 12.2814 22.4816C17.0942 17.1433 23.356 11.259 29.5813 7.63767C36.3935 3.67403 49.1415 -0.67601 54.786 0.484093C61.5434 1.87275 70.0529 7.43207 73.8601 13.3408Z" fill="#E4C9B6"/>
<path d="M43.8797 102.499C40.5619 102.701 37.3439 102.761 34.0195 102.756C35.4419 103.63 36.98 104.34 38.6201 104.663C43.4203 105.607 48.2681 106.556 53.1596 106.43C53.2083 106.028 52.8936 105.711 52.7662 105.325C52.1929 103.594 52.5798 100.888 52.0641 101.016C49.9743 101.539 46.0646 102.366 43.8797 102.499Z" fill="#EBE2D5"/>
<path d="M83.606 83.4347C82.5354 84.688 81.2296 85.7198 79.9094 86.7104C73.7309 91.3475 67.0204 95.284 59.9492 98.4196C60.2312 100.495 60.9421 102.512 62.0245 104.31C62.1954 104.594 62.4282 105.738 62.7087 105.916C63.0216 106.115 64.2117 105.952 64.5817 105.981C71.1653 106.495 77.0042 105.026 83.2665 102.944C85.6654 102.147 88.1706 101.024 89.4258 98.8425C90.8355 96.393 90.2782 93.3576 90.3086 90.5363C90.3381 87.8306 96.2618 75.2601 93.8067 73.7581C90.4332 71.695 84.9226 81.8943 83.606 83.4347Z" fill="#EBE2D5"/>
<path d="M89.8184 98.916C129.182 74.4869 109.555 33.0693 96.9191 19.5724C89.5838 11.7373 72.696 5.64645 69.8789 5.47644C94.9759 29.6531 99.7854 50.8146 89.9683 73.6279" fill="#EBE2D5"/>
<path d="M89.8184 98.916C129.182 74.4869 109.555 33.0693 96.9191 19.5724C89.5838 11.7373 72.696 5.64645 69.8789 5.47644C94.9759 29.6531 99.7854 50.8146 89.9683 73.6279" stroke="#231F20" stroke-width="0.75" stroke-miterlimit="10" stroke-linecap="round" stroke-linejoin="round"/>
<path d="M52.2776 34.4834C49.6094 32.5412 46.8372 31.5614 43.6094 30.8406" stroke="#231F20" stroke-width="0.75" stroke-miterlimit="10" stroke-linecap="round" stroke-linejoin="round"/>
<path d="M65.8828 40.4113C68.7407 40.8759 71.3021 42.8589 72.4528 45.499" stroke="#231F20" stroke-width="0.75" stroke-miterlimit="10" stroke-linecap="round" stroke-linejoin="round"/>
<path d="M38.3047 36.7973C39.7346 39.4627 43.8036 40.2172 46.0999 40.7263C47.1298 40.9549 48.3939 40.9666 48.8922 41.8906" stroke="#231F20" stroke-width="0.75" stroke-miterlimit="10" stroke-linecap="round" stroke-linejoin="round"/>
<path d="M60.0547 46.3081C61.0279 47.3713 62.2728 48.9543 63.7528 50.2713C65.0417 51.4188 66.7109 52.148 68.4325 51.9719" stroke="#231F20" stroke-width="0.75" stroke-miterlimit="10" stroke-linecap="round" stroke-linejoin="round"/>
<path d="M60.4309 41.9418C57.8176 42.3455 56.1381 44.6732 55.8711 47.4688" stroke="#231F20" stroke-width="0.75" stroke-miterlimit="10" stroke-linecap="round" stroke-linejoin="round"/>
<path d="M49.5271 50.156C48.5993 50.3021 47.6841 50.5307 46.7976 50.8393C46.2814 51.0187 45.74 51.2534 45.4557 51.7175C44.9321 52.5736 45.5911 53.715 46.4603 54.2236" stroke="#231F20" stroke-width="0.75" stroke-miterlimit="10" stroke-linecap="round" stroke-linejoin="round"/>
<path d="M51.0803 53.7744C50.2481 53.6161 49.3887 53.5993 48.5508 53.7248" stroke="#231F20" stroke-width="0.75" stroke-miterlimit="10" stroke-linecap="round" stroke-linejoin="round"/>
<path d="M52.7617 54.732C53.2404 54.8472 53.7354 54.8964 54.2277 54.8781" stroke="#231F20" stroke-width="0.75" stroke-miterlimit="10" stroke-linecap="round" stroke-linejoin="round"/>
<path d="M55.7745 51.8172C55.8738 53.1712 56.2175 53.5538 56.1969 54.4456C56.1913 54.7022 56.1712 54.9617 56.0873 55.2043C55.8883 55.7776 55.3436 56.1855 54.7554 56.3471C54.1676 56.5091 53.9414 56.4838 53.3438 56.3611" stroke="#231F20" stroke-width="0.75" stroke-miterlimit="10" stroke-linecap="round" stroke-linejoin="round"/>
<path d="M72.6367 32.9848C73.6985 33.2906 74.7593 33.5323 75.7985 33.6836" stroke="#231F20" stroke-width="0.75" stroke-miterlimit="10" stroke-linecap="round" stroke-linejoin="round"/>
<path d="M65.8164 30.3171C66.9798 30.866 68.2026 31.4065 69.4508 31.8936" stroke="#231F20" stroke-width="0.75" stroke-miterlimit="10" stroke-linecap="round" stroke-linejoin="round"/>
<path d="M60.082 27.298C61.022 27.9092 62.0238 28.4323 63.0247 28.9424" stroke="#231F20" stroke-width="0.75" stroke-miterlimit="10" stroke-linecap="round" stroke-linejoin="round"/>
<path d="M55.1406 22.3459C55.2933 22.5431 55.4465 22.7398 55.6005 22.9356C56.2422 23.751 56.8037 24.4512 57.5259 25.1855" stroke="#231F20" stroke-width="0.75" stroke-miterlimit="10" stroke-linecap="round" stroke-linejoin="round"/>
<path d="M50.1328 17.1139C51.3477 17.8408 52.1687 18.7148 53.2309 19.9521" stroke="#231F20" stroke-width="0.75" stroke-miterlimit="10" stroke-linecap="round" stroke-linejoin="round"/>
<path d="M65.409 20.5944C70.0986 23.0345 77.4962 30.0874 79.2281 33.6445C73.1944 31.7112 66.814 28.7151 62.2949 25.8142C58.6385 23.4673 53.1743 16.4968 53.0825 16.4055C52.8876 16.2121 59.2783 17.4045 65.409 20.5944Z" stroke="#231F20" stroke-width="0.75" stroke-miterlimit="10" stroke-linecap="round" stroke-linejoin="round"/>
<path d="M72.996 33.1606C73.1908 36.254 73.4713 36.2273 73.3711 39.2721C73.3079 41.1932 73.114 43.1561 72.293 44.8965" stroke="#231F20" stroke-width="0.75" stroke-miterlimit="10" stroke-linecap="round" stroke-linejoin="round"/>
<path d="M24.668 61.2593C28.7909 65.8051 33.3741 73.8607 40.79 75.9847C46.0777 77.4993 50.8951 75.3777 53.6036 72.8594C55.0831 71.4834 61.6114 64.6764 64.2899 61.5127C67.2602 58.0047 67.0654 53.0707 67.9608 51.0591C68.839 49.0869 70.4778 48.2392 71.4449 46.3082" stroke="#231F20" stroke-width="0.75" stroke-miterlimit="10" stroke-linecap="round" stroke-linejoin="round"/>
<path d="M60.0547 46.3057C61.3197 47.4658 61.5145 49.4956 63.5579 50.7522C65.5536 51.9793 66.9643 51.9123 68.1319 52.0088" stroke="#231F20" stroke-width="0.75" stroke-miterlimit="10" stroke-linecap="round" stroke-linejoin="round"/>
<path d="M44.777 40.5168C44.1349 40.5562 43.4876 40.5023 42.8615 40.3562C42.239 40.2115 41.6419 39.9782 41.0475 39.7455C40.3909 39.4888 39.7216 39.2247 39.1821 38.7732C38.6421 38.3221 38.2449 37.6426 38.3171 36.9452" stroke="#231F20" stroke-width="0.75" stroke-miterlimit="10" stroke-linecap="round" stroke-linejoin="round"/>
<path d="M89.0469 75.0071C82.771 85.6153 72.1709 93.6634 60.375 98.0996" stroke="#231F20" stroke-width="0.75" stroke-miterlimit="10" stroke-linecap="round" stroke-linejoin="round"/>
<path d="M62.8984 106.043C71.037 106.468 77.769 105.18 84.0454 102.142" stroke="#231F20" stroke-width="0.75" stroke-miterlimit="10" stroke-linecap="round" stroke-linejoin="round"/>
<path d="M62.7305 105.957C62.8302 106.104 62.9333 106.25 63.04 106.394C65.7495 110.061 70.7683 112.256 75.0462 113.878" stroke="#231F20" stroke-width="0.75" stroke-miterlimit="10" stroke-linecap="round" stroke-linejoin="round"/>
<path d="M75.7235 36.2548C77.5402 44.2458 71.8938 65.3277 65.6409 75.4581C64.4883 77.3249 63.1207 79.0667 62.1517 81.0338C60.5106 84.3647 60.1008 88.1527 59.9392 91.8578C59.7265 96.7268 60.0052 101.939 62.7263 105.957" stroke="#231F20" stroke-width="0.75" stroke-miterlimit="10" stroke-linecap="round" stroke-linejoin="round"/>
<path d="M63.7237 62.5361C63.5321 64.4676 63.2122 66.4225 62.3434 68.1605C61.7332 69.382 60.8709 70.4573 60.0579 71.5556C56.8117 75.9379 54.2564 80.8242 52.5146 85.9822C51.9877 87.5418 51.5311 89.2063 51.88 90.8141C52.1268 91.9522 52.7638 92.9812 52.9849 94.1244C53.2382 95.4354 52.9268 96.7795 52.6809 98.0918C52.1114 101.131 51.9559 104.508 53.6977 107.07C54.2564 107.892 54.9847 108.586 55.5908 109.375C56.2811 110.273 56.8052 111.283 57.3251 112.288C58.0421 113.672 58.7587 115.055 59.4753 116.439" stroke="#231F20" stroke-width="0.75" stroke-miterlimit="10" stroke-linecap="round" stroke-linejoin="round"/>
<path d="M46.957 106.423C47.6399 108.423 48.127 110.425 47.734 112.477C47.5546 113.416 47.2371 114.525 47.8975 115.22C47.7987 115.03 47.6998 114.84 47.6005 114.651" stroke="#231F20" stroke-width="0.75" stroke-miterlimit="10" stroke-linecap="round" stroke-linejoin="round"/>
<path d="M51.6 74.8334C51.6407 77.2876 50.3766 79.5699 48.9646 81.5838C47.552 83.5977 45.9311 85.5226 45.0815 87.8273C44.6173 89.0863 44.3991 90.422 44.2731 91.7563C44.1172 93.4058 44.6689 98.9258 45.0955 100.824C45.2037 101.306 45.3372 101.787 45.4857 102.266" stroke="#231F20" stroke-width="0.75" stroke-miterlimit="10" stroke-linecap="round" stroke-linejoin="round"/>
<path d="M42.6384 77.5335C41.4155 79.5577 40.3491 81.6756 39.4517 83.8614C38.8789 85.2547 38.5337 86.7206 38.1324 88.1721C36.2107 95.1243 37.3291 95.6193 38.8386 98.991C39.314 100.053 40.2723 101.25 41.4277 102.347" stroke="#231F20" stroke-width="0.75" stroke-miterlimit="10" stroke-linecap="round" stroke-linejoin="round"/>
<path d="M76.5195 24.7958C76.645 25.5522 76.7251 26.2669 76.7584 26.9268" stroke="#231F20" stroke-width="0.75" stroke-miterlimit="10" stroke-linecap="round" stroke-linejoin="round"/>
<path d="M59.1758 14.8486C59.2399 14.9418 59.3022 15.0313 59.3631 15.1156C59.8132 15.7413 59.5191 15.9076 60.2544 16.1483C60.712 16.2977 61.5049 16.4452 62.2065 16.6611" stroke="#231F20" stroke-width="0.75" stroke-miterlimit="10" stroke-linecap="round" stroke-linejoin="round"/>
<path d="M68.1859 19.2891C67.4783 18.9987 66.1622 18.3065 65.625 17.936" stroke="#231F20" stroke-width="0.75" stroke-miterlimit="10" stroke-linecap="round" stroke-linejoin="round"/>
<path d="M60.0039 27.196C60.0039 28.3013 58.9815 29.1973 57.7207 29.1973C56.4599 29.1973 55.4375 28.3013 55.4375 27.196C55.4375 26.0907 56.4599 25.1947 57.7207 25.1947C58.9815 25.1947 60.0039 26.0907 60.0039 27.196Z" stroke="#231F20" stroke-width="0.75" stroke-miterlimit="10" stroke-linecap="round" stroke-linejoin="round"/>
<path d="M72.6064 18.6081C72.6064 19.0807 72.4195 19.5148 72.1067 19.8572C71.6884 20.3157 71.0445 20.6094 70.3227 20.6094C69.0615 20.6094 68.0391 19.7134 68.0391 18.6081C68.0391 17.5028 69.0615 16.6069 70.3227 16.6069C70.7724 16.6069 71.1911 16.7207 71.5447 16.9174C72.183 17.2719 72.6064 17.8967 72.6064 18.6081Z" stroke="#231F20" stroke-width="0.75" stroke-miterlimit="10" stroke-linecap="round" stroke-linejoin="round"/>
<path d="M65.22 17.3258C64.8875 17.5094 64.4908 17.6162 64.0646 17.6162C62.8942 17.6162 61.9453 16.8111 61.9453 15.8182C61.9453 14.8253 62.8942 14.0202 64.0646 14.0202C65.235 14.0202 66.1839 14.8253 66.1839 15.8182C66.1839 16.4496 65.8003 17.005 65.22 17.3258Z" stroke="#231F20" stroke-width="0.75" stroke-miterlimit="10" stroke-linecap="round" stroke-linejoin="round"/>
<path d="M59.7627 13.4216C59.7627 14.5269 58.7403 15.4229 57.479 15.4229C56.2177 15.4229 55.1953 14.5269 55.1953 13.4216C55.1953 12.3163 56.2177 11.4203 57.479 11.4203C58.7403 11.4203 59.7627 12.3163 59.7627 13.4216Z" stroke="#231F20" stroke-width="0.75" stroke-miterlimit="10" stroke-linecap="round" stroke-linejoin="round"/>
<path d="M77.0829 23.1282C77.0829 23.8069 76.6997 24.405 76.1181 24.7562C75.7733 24.9646 75.3584 25.0859 74.9125 25.0859C73.7135 25.0859 72.7422 24.2097 72.7422 23.1282C72.7422 22.0468 73.7135 21.1705 74.9125 21.1705C75.5115 21.1705 76.0544 21.3897 76.4473 21.7438C76.8398 22.0983 77.0829 22.5878 77.0829 23.1282Z" stroke="#231F20" stroke-width="0.75" stroke-miterlimit="10" stroke-linecap="round" stroke-linejoin="round"/>
<path d="M50.2236 16.486C50.2236 17.5914 49.2012 18.4873 47.9399 18.4873C46.6787 18.4873 45.6562 17.5914 45.6562 16.486C45.6562 15.3807 46.6787 14.4848 47.9399 14.4848C49.2012 14.4848 50.2236 15.3807 50.2236 16.486Z" stroke="#231F20" stroke-width="0.75" stroke-miterlimit="10" stroke-linecap="round" stroke-linejoin="round"/>
<path d="M63.0392 29.1354C63.2279 29.0998 63.426 29.0806 63.6302 29.0806C64.9055 29.0806 65.9396 29.8211 65.9396 30.7339C65.9396 31.6467 64.9055 32.3867 63.6302 32.3867C62.3544 32.3867 61.3203 31.6467 61.3203 30.7339C61.3203 29.9672 62.05 29.3223 63.0392 29.1354Z" stroke="#231F20" stroke-width="0.75" stroke-miterlimit="10" stroke-linecap="round" stroke-linejoin="round"/>
<path d="M72.6533 33.6931C72.6533 34.7984 71.6309 35.6943 70.3696 35.6943C69.1083 35.6943 68.0859 34.7984 68.0859 33.6931C68.0859 32.5878 69.1083 31.6918 70.3696 31.6918C71.6309 31.6918 72.6533 32.5878 72.6533 33.6931Z" stroke="#231F20" stroke-width="0.75" stroke-miterlimit="10" stroke-linecap="round" stroke-linejoin="round"/>
<path d="M78.9914 35.1059C78.9914 36.0304 78.1292 36.7803 77.066 36.7803C76.0024 36.7803 75.1406 36.0304 75.1406 35.1059C75.1406 34.1814 76.0024 33.4316 77.066 33.4316C78.1292 33.4316 78.9914 34.1814 78.9914 35.1059Z" stroke="#231F20" stroke-width="0.75" stroke-miterlimit="10" stroke-linecap="round" stroke-linejoin="round"/>
<path d="M53.1196 20.0053C54.2544 20.1037 55.1386 20.8882 55.1386 21.8413C55.1386 22.0019 55.1133 22.1574 55.0665 22.3059C54.8141 23.1007 53.9298 23.6875 52.8779 23.6875C51.6293 23.6875 50.6172 22.8609 50.6172 21.8413C50.6172 20.8217 51.6293 19.995 52.8779 19.995C52.9594 19.995 53.04 19.9983 53.1196 20.0053Z" stroke="#231F20" stroke-width="0.75" stroke-miterlimit="10" stroke-linecap="round" stroke-linejoin="round"/>
<path d="M78.9407 30.6465C79.6845 30.3163 80.2011 29.5978 80.2011 28.7628C80.2011 27.6149 79.2274 26.6842 78.0265 26.6842C77.672 26.6842 77.3385 26.7671 77.043 26.9109" stroke="#231F20" stroke-width="0.75" stroke-miterlimit="10" stroke-linecap="round" stroke-linejoin="round"/>
<path d="M76.6953 26.8288C76.9641 27.5969 77.8147 28.5687 78.1809 29.6061C78.4516 30.3738 78.8057 31.2608 78.2914 31.8936" stroke="#231F20" stroke-width="0.75" stroke-miterlimit="10" stroke-linecap="round" stroke-linejoin="round"/>
<path d="M70.2266 20.6417C71.0719 21.2745 71.8766 21.962 72.6325 22.6982" stroke="#231F20" stroke-width="0.75" stroke-miterlimit="10" stroke-linecap="round" stroke-linejoin="round"/>
<path d="M75.0469 25.0866C75.6759 25.6369 76.2646 26.2336 76.806 26.8691" stroke="#231F20" stroke-width="0.75" stroke-miterlimit="10" stroke-linecap="round" stroke-linejoin="round"/>
<path d="M52.1737 100.957C48.6704 101.988 44.8674 102.527 41.1782 102.625C38.7072 102.692 36.2362 102.759 33.7656 102.825C39.435 106.069 46.7497 106.186 53.2907 106.366" stroke="#231F20" stroke-width="0.75" stroke-miterlimit="10" stroke-linecap="round" stroke-linejoin="round"/>
<path d="M80.706 49.7759C79.2101 50.064 77.7147 50.352 76.2188 50.6405C77.6046 51.0934 78.953 51.661 80.2442 52.335C80.0555 53.6623 79.8667 54.9901 79.678 56.3174C80.5051 55.4022 81.1884 54.3583 81.6952 53.2361C82.9035 54.1391 84.2046 54.9198 85.5708 55.5633C85.4565 54.2196 83.8238 51.5191 83.9119 51.4231C84.5315 50.7473 86.0471 49.3999 86.7304 48.7882C85.641 48.9029 84.5516 49.0177 83.4623 49.1324C83.3152 49.1479 83.1592 49.1624 83.0253 49.0996C82.8946 49.0388 82.807 48.9146 82.7255 48.7966C82.3551 48.2575 81.3701 46.3069 81.4001 46.1982C81.506 45.8156 80.9514 49.7286 80.706 49.7759Z" fill="#EBE2D5"/>
<path d="M80.706 49.7759C79.2101 50.064 77.7147 50.352 76.2188 50.6405C77.6046 51.0934 78.953 51.661 80.2442 52.335C80.0555 53.6623 79.8667 54.9901 79.678 56.3174C80.5051 55.4022 81.1884 54.3583 81.6952 53.2361C82.9035 54.1391 84.2046 54.9198 85.5708 55.5633C85.4565 54.2196 83.8238 51.5191 83.9119 51.4231C84.5315 50.7473 86.0471 49.3999 86.7304 48.7882C85.641 48.9029 84.5516 49.0177 83.4623 49.1324C83.3152 49.1479 83.1592 49.1624 83.0253 49.0996C82.8946 49.0388 82.807 48.9146 82.7255 48.7966C82.3551 48.2575 81.3701 46.3069 81.4001 46.1982C81.506 45.8156 80.9514 49.7286 80.706 49.7759Z" stroke="#231F20" stroke-width="0.75" stroke-miterlimit="10" stroke-linecap="round" stroke-linejoin="round"/>
<path d="M74.2935 76.7343C75.744 76.2711 77.1945 75.8079 78.645 75.3447C77.6502 76.4051 76.7439 77.5474 75.9393 78.7557L78.3672 81.9747C77.1982 81.5686 75.7412 81.171 74.7525 80.4301C74.1315 81.7995 73.7226 82.9161 72.8374 84.1338C72.2862 82.9016 72.407 79.7542 72.2829 79.7121C71.4127 79.4161 69.4306 78.9604 68.5352 78.7515L71.5663 77.4893C71.7026 77.4326 71.8459 77.3703 71.933 77.2514C72.0183 77.1357 72.0347 76.9854 72.0487 76.8425C72.1124 76.1929 71.7359 74.0497 71.9504 73.9313C72.2993 73.7383 74.0556 76.8102 74.2935 76.7343Z" fill="#EBE2D5"/>
<path d="M74.2935 76.7343C75.744 76.2711 77.1945 75.8079 78.645 75.3447C77.6502 76.4051 76.7439 77.5474 75.9393 78.7557L78.3672 81.9747C77.1982 81.5686 75.7412 81.171 74.7525 80.4301C74.1315 81.7995 73.7226 82.9161 72.8374 84.1338C72.2862 82.9016 72.407 79.7542 72.2829 79.7121C71.4127 79.4161 69.4306 78.9604 68.5352 78.7515L71.5663 77.4893C71.7026 77.4326 71.8459 77.3703 71.933 77.2514C72.0183 77.1357 72.0347 76.9854 72.0487 76.8425C72.1124 76.1929 71.7359 74.0497 71.9504 73.9313C72.2993 73.7383 74.0556 76.8102 74.2935 76.7343Z" stroke="#231F20" stroke-width="0.75" stroke-miterlimit="10" stroke-linecap="round" stroke-linejoin="round"/>
<path d="M87.4713 38.9167C88.4248 39.4619 89.3779 40.0075 90.3315 40.5527C89.2543 40.5887 88.1729 40.7194 87.1013 40.9428C86.8746 41.9826 86.6479 43.0228 86.4212 44.0625C86.0971 43.1923 85.6311 42.1676 85.5834 41.2121C84.508 41.6257 83.6772 42.0167 82.5625 42.2008C83.0027 41.2154 84.8537 39.5429 84.819 39.4511C84.5736 38.8071 83.8912 37.4606 83.5849 36.8504C84.3048 37.1759 85.0246 37.5019 85.7445 37.8274C85.8419 37.8714 85.9454 37.9163 86.0545 37.8985C86.1608 37.8812 86.2545 37.8077 86.3426 37.7365C86.743 37.4124 87.7851 36.0205 87.9546 36.0739C88.2305 36.16 87.3148 38.8273 87.4713 38.9167Z" fill="#EBE2D5"/>
<path d="M87.4713 38.9167C88.4248 39.4619 89.3779 40.0075 90.3315 40.5527C89.2543 40.5887 88.1729 40.7194 87.1013 40.9428C86.8746 41.9826 86.6479 43.0228 86.4212 44.0625C86.0971 43.1923 85.6311 42.1676 85.5834 41.2121C84.508 41.6257 83.6772 42.0167 82.5625 42.2008C83.0027 41.2154 84.8537 39.5429 84.819 39.4511C84.5736 38.8071 83.8912 37.4606 83.5849 36.8504C84.3048 37.1759 85.0246 37.5019 85.7445 37.8274C85.8419 37.8714 85.9454 37.9163 86.0545 37.8985C86.1608 37.8812 86.2545 37.8077 86.3426 37.7365C86.743 37.4124 87.7851 36.0205 87.9546 36.0739C88.2305 36.16 87.3148 38.8273 87.4713 38.9167Z" stroke="#231F20" stroke-width="0.75" stroke-miterlimit="10" stroke-linecap="round" stroke-linejoin="round"/>
<path d="M22.6562 32.6108C22.6023 33.7189 22.5377 34.8247 22.4037 35.9113C21.8047 40.7826 19.6728 45.5349 16.0749 48.8977C13.3341 51.4591 9.54098 53.6337 9.07029 57.3421C8.88997 58.7607 9.25669 60.1873 9.29556 61.6167C9.38268 64.8286 7.77905 67.9169 5.52628 70.2226C3.27305 72.5288 0.41237 74.1497 -2.48438 75.5801" stroke="#231F20" stroke-width="0.75" stroke-miterlimit="10" stroke-linecap="round" stroke-linejoin="round"/>
<path d="M51.7824 14.472C46.5101 11.5036 34.1818 14.1076 28.7025 18.2469C26.9771 19.5503 25.4086 21.1169 24.4078 23.0269C23.9792 23.8451 23.6659 24.6975 23.4336 25.5742" stroke="#231F20" stroke-width="0.75" stroke-miterlimit="10" stroke-linecap="round" stroke-linejoin="round"/>
<path d="M14.9682 31.027C14.6389 32.2236 14.2966 33.4479 13.5753 34.4605C12.0457 36.6083 9.19203 37.3422 7.17766 39.0498C4.88836 40.9907 3.61304 44.2312 0.773438 45.2236" stroke="#231F20" stroke-width="0.75" stroke-miterlimit="10" stroke-linecap="round" stroke-linejoin="round"/>
<path d="M45.603 11.5901C41.2801 10.0591 36.4636 10.0993 32.0635 11.3948C27.6633 12.6903 23.6735 15.1992 20.3716 18.3657C19.5562 19.1479 18.7736 19.9787 18.1839 20.9402C17.4945 22.0652 17.1044 23.0595 16.7461 24.332" stroke="#231F20" stroke-width="0.75" stroke-miterlimit="10" stroke-linecap="round" stroke-linejoin="round"/>
<path d="M35.0469 8.0277C36.4027 8.60986 39.1342 5.90092 46.5884 9.70861C48.8871 10.8832 51.6096 12.0499 52.277 14.5303" stroke="#231F20" stroke-width="0.75" stroke-miterlimit="10" stroke-linecap="round" stroke-linejoin="round"/>
<path d="M55.3329 14.108C54.7255 14.3862 54.0047 13.9006 53.7199 13.2992C53.4356 12.6978 53.4324 12.008 53.2806 11.3607C52.9139 9.7964 51.5889 8.49533 50.0096 8.14922C49.391 8.01386 41.7175 4.42958 39.4596 4.42021C37.2017 4.41085 34.9719 4.87358 32.7617 5.33396" stroke="#231F20" stroke-width="0.75" stroke-miterlimit="10" stroke-linecap="round" stroke-linejoin="round"/>
<path d="M37.188 25.3317C36.8466 26.615 37.0279 27.3643 36.7614 28.6551C35.0257 37.0554 28.5521 46.4491 24.7964 54.1704C21.0407 61.892 19.9677 67.9436 13.4216 73.5338C11.7435 74.967 9.9769 76.2929 8.21122 77.6183C6.55373 78.8622 4.89577 80.1066 3.23828 81.3506C3.60968 81.0719 3.98108 80.7928 4.35249 80.5141" stroke="#231F20" stroke-width="0.75" stroke-miterlimit="10" stroke-linecap="round" stroke-linejoin="round"/>
<path d="M50.2288 22.7797C49.2074 24.4807 48.1761 26.1954 46.8239 27.651C45.2714 29.323 43.3455 30.6002 41.5981 32.0708C37.4724 35.5418 35.6009 37.0915 33.882 42.1834C33.4048 43.5983 32.4404 47.2351 31.8672 48.6148C31.4602 49.5951 30.8691 50.4878 30.2813 51.3734C26.9757 56.3571 24.3422 62.5909 21.0366 67.5746C20.38 68.5642 19.8474 73.1995 19.285 74.2443C18.4096 75.87 15.9292 79.762 15.2946 81.4944C13.3299 86.8594 12.41 85.177 10.4453 90.542" stroke="#231F20" stroke-width="0.75" stroke-miterlimit="10" stroke-linecap="round" stroke-linejoin="round"/>
<path d="M28.9166 28.8104C28.03 32.1123 28.6679 35.3912 27.4179 38.5793C26.6723 40.4812 22.9681 48.3036 22.0722 49.7869C20.4329 52.501 15.874 59.4012 13.6142 61.6324C9.69507 65.501 9.55503 71.774 6.28126 76.1953C5.73189 76.9371 4.64625 77.7141 3.73438 77.8809" stroke="#231F20" stroke-width="0.75" stroke-miterlimit="10" stroke-linecap="round" stroke-linejoin="round"/>
<path d="M35.5392 19.0384C33.4359 21.1225 31.2248 23.0994 29.8867 25.8145" stroke="#231F20" stroke-width="0.75" stroke-miterlimit="10" stroke-linecap="round" stroke-linejoin="round"/>
<path d="M61.5201 15.8906C61.5655 15.1637 62.6877 8.41529 54.5131 5.90166C45.4646 3.11966 43.4853 1.81015 39.457 2.42462" stroke="#231F20" stroke-width="0.75" stroke-miterlimit="10" stroke-linecap="round" stroke-linejoin="round"/>
<path d="M68.2645 14.085C68.6322 12.8705 66.6459 11.5076 65.5158 9.21037C63.9824 6.09397 61.776 5.8509 60.2197 4.67628C59.4361 4.08475 53.0712 1.4929 50.618 1.06717C48.1648 0.641441 47.6777 -0.187071 45.1875 -0.148666" stroke="#231F20" stroke-width="0.75" stroke-miterlimit="10" stroke-linecap="round" stroke-linejoin="round"/>
<path d="M76.18 20.916C76.18 18.3382 76.3809 18.6197 74.493 14.2139C73.5605 12.037 70.6806 9.98145 69.0906 8.21998C62.1665 0.551686 52.5714 0.631774 51.6562 -0.479621" stroke="#231F20" stroke-width="0.75" stroke-miterlimit="10" stroke-linecap="round" stroke-linejoin="round"/>
<path d="M45.7511 16.9211C42.2479 20.401 33.0275 25.8329 27.6503 26.5879C22.2732 27.3428 11.955 24.0307 12.6636 19.4343" stroke="#231F20" stroke-width="0.75" stroke-miterlimit="10" stroke-linecap="round" stroke-linejoin="round"/>
<path d="M14.2848 26.7803C11.9454 25.2586 10.1723 23.1983 8.96484 21.5605" stroke="#231F20" stroke-width="0.75" stroke-miterlimit="10" stroke-linecap="round" stroke-linejoin="round"/>
<path d="M20.9656 29.1084C20.2734 29.0161 19.5812 28.8855 18.8908 28.7136C18.3504 28.5796 17.8282 28.4143 17.3242 28.2232" stroke="#231F20" stroke-width="0.75" stroke-miterlimit="10" stroke-linecap="round" stroke-linejoin="round"/>
<path d="M28.7059 28.6619C27.3589 28.9799 25.997 29.1831 24.6289 29.2529" stroke="#231F20" stroke-width="0.75" stroke-miterlimit="10" stroke-linecap="round" stroke-linejoin="round"/>
<path d="M29.4531 28.4743C29.2049 28.5408 28.9562 28.6036 28.707 28.6621" stroke="#231F20" stroke-width="0.75" stroke-miterlimit="10" stroke-linecap="round" stroke-linejoin="round"/>
<path d="M38.6947 24.2425C36.8312 25.4428 34.8809 26.4891 32.875 27.3125" stroke="#231F20" stroke-width="0.75" stroke-miterlimit="10" stroke-linecap="round" stroke-linejoin="round"/>
<path d="M46.143 18.2745C44.53 19.8411 42.7737 21.3478 40.9102 22.7168" stroke="#231F20" stroke-width="0.75" stroke-miterlimit="10" stroke-linecap="round" stroke-linejoin="round"/>
<path d="M14.8502 38.7361C14.771 40.5852 13.3416 42.1101 11.7825 43.1237C10.2233 44.1367 8.45016 44.8289 7.01935 46.0143C4.62281 47.9992 3.28379 51.2776 0.40625 52.4775" stroke="#231F20" stroke-width="0.75" stroke-miterlimit="10" stroke-linecap="round" stroke-linejoin="round"/>
<path d="M42.8484 24.6713C42.8484 25.7162 41.8967 26.5635 40.723 26.5635C39.5493 26.5635 38.5977 25.7162 38.5977 24.6713C38.5977 23.6265 39.5493 22.7792 40.723 22.7792C41.8967 22.7792 42.8484 23.6265 42.8484 24.6713Z" stroke="#231F20" stroke-width="0.75" stroke-miterlimit="10" stroke-linecap="round" stroke-linejoin="round"/>
<path d="M22.9186 28.5288C24.0417 28.6272 24.9208 29.5123 24.9208 30.5895C24.9208 31.7328 23.9311 32.6592 22.7106 32.6592C21.4896 32.6592 20.5 31.7328 20.5 30.5895C20.5 29.4463 21.4896 28.5199 22.7106 28.5199" stroke="#231F20" stroke-width="0.75" stroke-miterlimit="10" stroke-linecap="round" stroke-linejoin="round"/>
<path d="M22.7109 28.5214C22.7812 28.5214 22.8505 28.5247 22.9189 28.5303" stroke="#231F20" stroke-width="0.75" stroke-miterlimit="10" stroke-linecap="round" stroke-linejoin="round"/>
<path d="M34.0562 29.0044C34.0562 30.0492 33.0624 30.8965 31.8367 30.8965C30.611 30.8965 29.6172 30.0492 29.6172 29.0044C29.6172 27.9595 30.611 27.1122 31.8367 27.1122C33.0624 27.1122 34.0562 27.9595 34.0562 29.0044Z" stroke="#231F20" stroke-width="0.75" stroke-miterlimit="10" stroke-linecap="round" stroke-linejoin="round"/>
<path d="M17.2783 28.8396C17.2783 29.9449 16.2559 30.8408 14.9946 30.8408C13.7333 30.8408 12.7109 29.9449 12.7109 28.8396C12.7109 27.7343 13.7333 26.8383 14.9946 26.8383C16.2559 26.8383 17.2783 27.7343 17.2783 28.8396Z" stroke="#231F20" stroke-width="0.75" stroke-miterlimit="10" stroke-linecap="round" stroke-linejoin="round"/>
<path d="M38.9414 58.5921C40.3554 58.9686 41.8545 58.9288 43.298 58.6862C44.0193 58.5654 44.7546 58.3939 45.4735 58.5284C46.3765 58.6965 47.1268 59.3231 48.0068 59.585C48.478 59.725 48.9852 59.7601 49.425 59.9788C50.0305 60.2791 50.4183 60.8776 50.7761 61.4481C51.1386 62.0265 51.5115 62.633 51.5723 63.3116C51.6337 63.9903 51.2773 64.7584 50.6136 64.9316" stroke="#231F20" stroke-width="0.75" stroke-miterlimit="10" stroke-linecap="round" stroke-linejoin="round"/>
<path d="M38.9922 58.508C40.1692 59.4877 41.4862 60.5205 43.0223 60.5134C43.3581 60.512 43.6958 60.4596 44.0288 60.5036C44.3927 60.5518 44.7304 60.7125 45.0611 60.8713C46.1776 61.4066 47.9447 61.9138 49.0612 62.4496C49.9371 63.0294 50.2288 63.4163 50.3263 64.6729" stroke="#231F20" stroke-width="0.75" stroke-miterlimit="10" stroke-linecap="round" stroke-linejoin="round"/>
<path d="M40.8359 61.5226C41.7235 62.4827 42.8142 63.2564 44.016 63.7791C44.4366 63.9617 44.8698 64.1139 45.3026 64.2662C46.6809 64.7504 47.5029 65.164 48.9623 65.2539" stroke="#231F20" stroke-width="0.75" stroke-miterlimit="10" stroke-linecap="round" stroke-linejoin="round"/>
<path d="M88.9504 74.9411C89.6215 76.0605 90.2046 77.1676 91.257 78.0664C91.5741 76.311 90.4392 72.3066 90.584 72.2139C90.8453 72.0458 91.197 71.8411 91.5937 71.6205C92.7379 70.9835 94.2554 70.2136 95.053 69.8056C93.6362 69.5822 92.2199 69.3584 90.8031 69.135C90.6121 69.1045 90.4102 69.0699 90.2622 68.9444C90.118 68.8221 90.05 68.6343 89.9877 68.4549C89.7044 67.6409 89.414 65.0083 89.2061 64.6861C89.1564 64.6093 87.4245 69.0427 87.098 69.0198L81.1289 68.5987C82.725 69.6488 84.2336 70.8318 85.6344 72.1319C84.9389 73.7637 84.2439 75.3949 83.5484 77.0267C84.909 76.1387 86.9622 74.7641 87.9888 73.5028C88.3555 73.974 88.6609 74.4587 88.9504 74.9411Z" fill="#EBE2D5" stroke="#231F20" stroke-width="0.75" stroke-miterlimit="10" stroke-linecap="round" stroke-linejoin="round"/>
<path d="M83.9017 101.5C82.8025 103.279 81.6625 105.259 80.5633 107.038C82.2602 106.242 83.8451 105.174 85.2421 103.884C86.2955 105.92 87.5511 107.84 88.9824 109.604C89.683 107.613 89.202 102.747 89.3819 102.665C90.6464 102.082 93.5455 101.095 94.8555 100.643C93.3151 100.133 91.7742 99.6244 90.2333 99.1148C90.0254 99.0464 89.8067 98.9701 89.6657 98.7982C89.5285 98.6301 89.4891 98.3992 89.455 98.1795C89.2985 97.181 89.8352 93.674 89.3224 93.6496C88.7253 93.6215 86.4716 98.4146 86.1109 98.3303C83.9125 97.8175 81.7141 97.3046 79.5156 96.7918C81.0944 98.2957 82.5496 99.9396 83.8605 101.7" fill="#EBE2D5"/>
<path d="M83.9017 101.5C82.8025 103.279 81.6625 105.259 80.5633 107.038C82.2602 106.242 83.8451 105.174 85.2421 103.884C86.2955 105.92 87.5511 107.84 88.9824 109.604C89.683 107.613 89.202 102.747 89.3819 102.665C90.6464 102.082 93.5455 101.095 94.8555 100.643C93.3151 100.133 91.7742 99.6244 90.2333 99.1148C90.0254 99.0464 89.8067 98.9701 89.6657 98.7982C89.5285 98.6301 89.4891 98.3992 89.4549 98.1795C89.2985 97.181 89.8352 93.674 89.3224 93.6496C88.7253 93.6215 86.4716 98.4146 86.1109 98.3303C83.9125 97.8175 81.7141 97.3046 79.5156 96.7918C81.0944 98.2957 82.5496 99.9396 83.8605 101.7" stroke="#231F20" stroke-width="0.75" stroke-miterlimit="10" stroke-linecap="round" stroke-linejoin="round"/>
</g>
<circle cx="58" cy="58" r="57.625" stroke="black" stroke-width="0.75"/>
</svg>
