<svg width="25" height="25" viewBox="0 0 25 25" fill="none" xmlns="http://www.w3.org/2000/svg">
<rect x="0.5" y="0.5" width="24" height="24" stroke="white"/>
<path d="M18.2976 7.4034C18.1774 7.34126 18.0604 7.27314 17.947 7.1993C17.6171 6.98126 17.3148 6.72435 17.0463 6.4341C16.3746 5.66557 16.1238 4.8859 16.0314 4.34002H16.0351C15.9579 3.88691 15.9898 3.59375 15.9946 3.59375H12.9353V15.4235C12.9353 15.5823 12.9353 15.7393 12.9287 15.8944C12.9287 15.9137 12.9268 15.9315 12.9257 15.9523C12.9257 15.9608 12.9257 15.9697 12.9238 15.9786C12.9238 15.9809 12.9238 15.9831 12.9238 15.9853C12.8916 16.4098 12.7555 16.8198 12.5276 17.1793C12.2997 17.5388 11.9869 17.8368 11.6168 18.0471C11.2311 18.2666 10.7948 18.3817 10.351 18.3811C8.92567 18.3811 7.77045 17.2188 7.77045 15.7834C7.77045 14.348 8.92567 13.1858 10.351 13.1858C10.6209 13.1855 10.889 13.228 11.1455 13.3116L11.1493 10.1966C10.3705 10.096 9.57928 10.1579 8.82561 10.3784C8.07194 10.5989 7.37214 10.9732 6.77035 11.4776C6.24305 11.9358 5.79975 12.4824 5.46039 13.093C5.33125 13.3157 4.84401 14.2104 4.785 15.6625C4.74789 16.4867 4.99541 17.3405 5.11342 17.6935V17.7009C5.18764 17.9087 5.47524 18.6179 5.94393 19.2157C6.32186 19.6952 6.76838 20.1165 7.2691 20.4659V20.4585L7.27653 20.4659C8.75756 21.4723 10.3997 21.4062 10.3997 21.4062C10.6839 21.3947 11.6361 21.4062 12.7175 20.8938C13.9169 20.3256 14.5997 19.4792 14.5997 19.4792C15.0359 18.9734 15.3828 18.397 15.6254 17.7747C15.9022 17.047 15.9946 16.1742 15.9946 15.8254V9.54943C16.0317 9.5717 16.526 9.89863 16.526 9.89863C16.526 9.89863 17.2382 10.3551 18.3492 10.6523C19.1463 10.8638 20.2203 10.9084 20.2203 10.9084V7.87135C19.844 7.91217 19.0799 7.79342 18.2976 7.4034Z" fill="white"/>
</svg>
